<?xml version="1.0" encoding="utf-8"?>
<!-- Generator: Adobe Illustrator 18.0.0, SVG Export Plug-In . SVG Version: 6.00 Build 0)  -->
<!DOCTYPE svg PUBLIC "-//W3C//DTD SVG 1.1//EN" "http://www.w3.org/Graphics/SVG/1.1/DTD/svg11.dtd">
<svg version="1.1" id="Layer_1" xmlns="http://www.w3.org/2000/svg" xmlns:xlink="http://www.w3.org/1999/xlink" x="0px" y="0px"
	 width="30px" height="30px" viewBox="0 0 30 30" enable-background="new 0 0 30 30" xml:space="preserve">
<g>
	<path fill="#E4EAF6" d="M6.6,14.3c0,5,4.1,9,9,9s9-4.1,9-9c0-5-4.1-9-9-9c-0.2,0-0.4,0-0.5,0c0,0-0.1,0-0.1,0c-0.1,0-0.3,0-0.4,0
		c0,0-0.1,0-0.1,0c-0.2,0-0.3,0-0.5,0.1c0,0,0,0-0.1,0c-0.2,0-0.4,0.1-0.5,0.1c0,0-0.1,0-0.1,0c-0.1,0-0.2,0.1-0.4,0.1
		c-0.1,0-0.1,0-0.2,0.1c-0.1,0-0.2,0.1-0.3,0.1c-0.3,0.1-0.7,0.3-1,0.4c0,0-0.1,0-0.1,0C8.5,7.9,6.6,10.9,6.6,14.3z M13.8,12.5h3.6
		c1,0,1.8,0.8,1.8,1.8s-0.8,1.8-1.8,1.8h-3.6c-1,0-1.8-0.8-1.8-1.8S12.8,12.5,13.8,12.5z"/>
</g>
<g>
	<path fill="#BEC8DC" d="M12.2,3.7c0.1,0,0.1,0,0.2,0C12.4,3.7,12.3,3.7,12.2,3.7z"/>
	<path fill="#BEC8DC" d="M11.7,3.8c0.1,0,0.1,0,0.2,0C11.8,3.8,11.8,3.8,11.7,3.8z"/>
	<path fill="#BEC8DC" d="M12.9,3.6c0.1,0,0.1,0,0.2,0C13,3.6,12.9,3.6,12.9,3.6z"/>
	<path fill="#BEC8DC" d="M14.1,3.5c0,0,0.1,0,0.1,0C14.2,3.4,14.1,3.4,14.1,3.5z"/>
	<path fill="#BEC8DC" d="M13.8,25.2c0-1,0.8-1.8,1.8-1.8c5,0,9-4.1,9-9s-4.1-9-9-9c0,0,0,0,0,0c5,0,9,4.1,9,9c0,5-4.1,9-9,9
		s-9-4.1-9-9c0-3.4,1.9-6.4,4.7-7.9c-0.1,0-0.1,0.1-0.2,0.1c-0.9,0.5-2,0.2-2.5-0.7C8.1,5,8.4,4,9.2,3.5C5.5,5.7,3,9.7,3,14.3
		C3,21.3,8.6,27,15.6,27c0,0,0,0,0,0C14.6,27,13.8,26.2,13.8,25.2z"/>
	<path fill="#BEC8DC" d="M11.2,2.5C11.3,2.5,11.3,2.4,11.2,2.5C11.3,2.4,11.3,2.5,11.2,2.5z"/>
	<path fill="#BEC8DC" d="M11.8,2.3c0,0,0.1,0,0.1,0C11.8,2.3,11.8,2.3,11.8,2.3z"/>
	<path fill="#BEC8DC" d="M13.4,3.5c0,0,0.1,0,0.1,0C13.5,3.5,13.5,3.5,13.4,3.5z"/>
	<path fill="#BEC8DC" d="M13.8,5.5C13.8,5.5,13.9,5.5,13.8,5.5C13.9,5.5,13.8,5.5,13.8,5.5z"/>
	<path fill="#BEC8DC" d="M14.4,5.4c0,0,0.1,0,0.1,0C14.5,5.4,14.4,5.4,14.4,5.4z"/>
	<path fill="#BEC8DC" d="M13.2,5.6c0,0,0.1,0,0.1,0C13.3,5.6,13.2,5.6,13.2,5.6z"/>
	<polygon fill="#BEC8DC" points="14.7,3.4 14.7,3.4 14.7,3.4 	"/>
	<path fill="#BEC8DC" d="M12.6,5.8c0.1,0,0.1,0,0.2-0.1C12.7,5.8,12.7,5.8,12.6,5.8z"/>
	<path fill="#BEC8DC" d="M14.9,5.3c0,0,0.1,0,0.1,0C15,5.3,15,5.3,14.9,5.3z"/>
	<path fill="#BEC8DC" d="M11.4,6.4c0.3-0.2,0.6-0.3,1-0.4C12,6,11.7,6.2,11.4,6.4z"/>
</g>
<path fill="#FF6469" d="M15.6,1.7C15.6,1.7,15.6,1.7,15.6,1.7C15.6,1.7,15.6,1.7,15.6,1.7c-0.2,0-0.4,0-0.6,0c-0.1,0-0.1,0-0.2,0
	c-0.2,0-0.4,0-0.5,0c0,0-0.1,0-0.1,0c-0.1,0-0.3,0-0.4,0.1c-0.1,0-0.1,0-0.2,0c-0.2,0-0.3,0.1-0.5,0.1c-0.1,0-0.1,0-0.2,0
	c-0.1,0-0.2,0.1-0.4,0.1c-0.1,0-0.1,0-0.2,0c-0.2,0-0.3,0.1-0.5,0.1c0,0-0.1,0-0.1,0c-0.2,0.1-0.3,0.1-0.5,0.2c0,0,0,0-0.1,0
	c-0.7,0.2-1.3,0.6-2,0.9c0,0-0.1,0.1-0.1,0.1C8.4,4,8.1,5,8.6,5.8c0.5,0.9,1.6,1.2,2.5,0.7c0.1,0,0.1-0.1,0.2-0.1c0,0,0.1,0,0.1,0
	c0.3-0.2,0.6-0.3,1-0.4c0.1,0,0.2-0.1,0.3-0.1c0.1,0,0.1,0,0.2-0.1c0.1,0,0.2-0.1,0.4-0.1c0,0,0.1,0,0.1,0c0.2,0,0.4-0.1,0.5-0.1
	c0,0,0,0,0.1,0c0.2,0,0.3-0.1,0.5-0.1c0,0,0.1,0,0.1,0c0.1,0,0.3,0,0.4,0c0,0,0.1,0,0.1,0c0.2,0,0.4,0,0.5,0c0,0,0,0,0,0
	c5,0,9,4.1,9,9s-4.1,9-9,9c-1,0-1.8,0.8-1.8,1.8c0,1,0.8,1.8,1.8,1.8h0c7,0,12.6-5.7,12.6-12.6S22.6,1.7,15.6,1.7z"/>
<g>
	<path fill="#707384" d="M13.8,16.1h3.6c1,0,1.8-0.8,1.8-1.8s-0.8-1.8-1.8-1.8h-3.6c-1,0-1.8,0.8-1.8,1.8S12.8,16.1,13.8,16.1z"/>
</g>
</svg>
