<svg id="Alert" xmlns="http://www.w3.org/2000/svg" width="26.13" height="22.46" viewBox="0 0 26.13 22.46"><title>video popup</title><path d="M27.36,5.82A1.23,1.23,0,0,0,26,6.06l-5.22,4.81v-4a2.27,2.27,0,0,0-2.27-2.27H4.27A2.27,2.27,0,0,0,2,6.88V17.54a2.2,2.2,0,0,0,2.2,2.2H11l-3.1,6.68a.46.46,0,0,0,.22.61.45.45,0,0,0,.19,0,.46.46,0,0,0,.42-.27l3-6.44,3,6.44a.46.46,0,0,0,.42.27.45.45,0,0,0,.19,0,.46.46,0,0,0,.22-.61l-3.1-6.68h6a2.37,2.37,0,0,0,2.37-2.37V13.7l5.19,5a1.24,1.24,0,0,0,.88.37,1.27,1.27,0,0,0,1.27-1.27V7A1.25,1.25,0,0,0,27.36,5.82ZM19.88,17.37a1.46,1.46,0,0,1-1.45,1.45H4.2a1.28,1.28,0,0,1-1.28-1.28V6.88A1.35,1.35,0,0,1,4.27,5.53H18.53a1.35,1.35,0,0,1,1.35,1.35Zm7.33.39a.34.34,0,0,1-.21.32.33.33,0,0,1-.37-.08l-5.73-5.48a.35.35,0,0,1-.1-.25.34.34,0,0,1,.1-.25l5.74-5.3a.32.32,0,0,1,.23-.1.36.36,0,0,1,.14,0,.34.34,0,0,1,.21.32Z" transform="translate(-2 -4.61)" style="fill:#006df0"/><path d="M10.31,11.82a3,3,0,1,0-.58.72l.65.65a.46.46,0,0,0,.65-.65Zm-2.58.59a2.06,2.06,0,1,1,1.9-1.27l-.89-.89a.46.46,0,0,0-.65.65l1,1A2,2,0,0,1,7.73,12.4Z" transform="translate(-2 -4.61)" style="fill:#006df0"/></svg>