<svg id="Layer_1" data-name="Layer 1" xmlns="http://www.w3.org/2000/svg" width="23.8" height="26.13" viewBox="0 0 23.8 26.13"><title>audio</title><path d="M25.58,3a.48.48,0,0,0-.38-.11L10.45,4.76a.48.48,0,0,0-.42.47V22.49a4.72,4.72,0,0,0-3.57-1.56,4.29,4.29,0,0,0-4.52,4,4.29,4.29,0,0,0,4.52,4A4.29,4.29,0,0,0,11,25a3.61,3.61,0,0,0,0-.47.47.47,0,0,0,0-.16V10.52l13.8-1.79v9a4.73,4.73,0,0,0-3.57-1.56,4.29,4.29,0,0,0-4.52,4,4.29,4.29,0,0,0,4.52,4,4.29,4.29,0,0,0,4.52-4s0-.09,0-.13,0,0,0,0V3.32A.48.48,0,0,0,25.58,3Z" transform="translate(-1.94 -2.84)" style="fill:#ea6248"/></svg>