<svg id="Layer_1" data-name="Layer 1" xmlns="http://www.w3.org/2000/svg" width="27.67" height="24.55" viewBox="0 0 27.67 24.55"><title>alert</title><path d="M2.47,26.08H27.2L14.83,4.25ZM14.8,23.64A1.6,1.6,0,1,1,16.36,22,1.53,1.53,0,0,1,14.8,23.64Zm1-4.07h-2l-.4-8h2.79Z" transform="translate(-1 -2.61)" style="fill:#fff"/><path d="M15.3,2.89a.54.54,0,0,0-.94,0L1.07,26.36a.54.54,0,0,0,.47.81H28.13a.54.54,0,0,0,.47-.81ZM2.47,26.08,14.83,4.25,27.2,26.08Z" transform="translate(-1 -2.61)" style="fill:#8ad5dd"/><polygon points="12.8 16.95 14.8 16.95 15.19 9 12.39 9 12.8 16.95" style="fill:#db2b42"/><path d="M14.8,20.44A1.6,1.6,0,1,0,16.36,22,1.53,1.53,0,0,0,14.8,20.44Z" transform="translate(-1 -2.61)" style="fill:#db2b42"/></svg>