<?xml version="1.0" encoding="utf-8"?>
<!-- Generator: Adobe Illustrator 18.0.0, SVG Export Plug-In . SVG Version: 6.00 Build 0)  -->
<!DOCTYPE svg PUBLIC "-//W3C//DTD SVG 1.1//EN" "http://www.w3.org/Graphics/SVG/1.1/DTD/svg11.dtd">
<svg version="1.1" id="Layer_1" xmlns="http://www.w3.org/2000/svg" xmlns:xlink="http://www.w3.org/1999/xlink" x="0px" y="0px"
	 width="30px" height="30px" viewBox="0 0 30 30" enable-background="new 0 0 30 30" xml:space="preserve">
<g>
	<polygon fill="none" stroke="#00E276" stroke-linecap="round" stroke-linejoin="round" stroke-miterlimit="10" points="13.9,5 3,5 
		3,26 28,26 28,9.5 13.9,9.5 13.9,5 	"/>
	
		<rect x="19" y="6.6" fill="none" stroke="#00E276" stroke-linecap="round" stroke-linejoin="round" stroke-miterlimit="10" width="5.1" height="2.8"/>
	
		<rect x="13.9" y="6.6" fill="none" stroke="#00E276" stroke-linecap="round" stroke-linejoin="round" stroke-miterlimit="10" width="5.1" height="2.8"/>
	
		<line fill="none" stroke="#00E276" stroke-linecap="round" stroke-linejoin="round" stroke-miterlimit="10" x1="23.5" y1="14.2" x2="15.6" y2="14.2"/>
	
		<line fill="none" stroke="#00E276" stroke-linecap="round" stroke-linejoin="round" stroke-miterlimit="10" x1="20.1" y1="21.1" x2="15.6" y2="21.1"/>
	
		<line fill="none" stroke="#00E276" stroke-linecap="round" stroke-linejoin="round" stroke-miterlimit="10" x1="25" y1="16.1" x2="15.6" y2="16.1"/>
	
		<line fill="none" stroke="#00E276" stroke-linecap="round" stroke-linejoin="round" stroke-miterlimit="10" x1="23.2" y1="18" x2="15.6" y2="18"/>
	<g>
		
			<path fill="none" stroke="#E00056" stroke-width="0.75" stroke-linecap="round" stroke-linejoin="round" stroke-miterlimit="10" d="
			M12.9,13.9c0,2.4,0,4.7,0,7c-3.1,0-3.9,0-7,0c0-2.3,0-4.7,0-7C9,13.9,9.8,13.9,12.9,13.9z"/>
		
			<path fill="none" stroke="#E00056" stroke-width="0.75" stroke-linecap="round" stroke-linejoin="round" stroke-miterlimit="10" d="
			M12.9,19.7c-0.2-0.3-0.5-0.5-0.7-0.8c-0.3,0.3-0.6,0.6-0.9,0.9c-0.9-0.9-1.8-1.8-2.7-2.7c-0.9,0.9-1.7,1.7-2.6,2.6"/>
		
			<path fill="none" stroke="#E00056" stroke-width="0.75" stroke-linecap="round" stroke-linejoin="round" stroke-miterlimit="10" d="
			M9.7,16.2c0-0.5,0.4-0.9,0.9-0.9c0.5,0,0.9,0.4,0.9,0.9c0,0.5-0.4,0.9-0.9,0.9C10.1,17.1,9.7,16.7,9.7,16.2z"/>
	</g>
</g>
</svg>
