<svg id="Alert" xmlns="http://www.w3.org/2000/svg" width="26.5" height="26.5" viewBox="0 0 26.5 26.5"><title>Dropcap</title><polygon points="18.11 6.63 18.11 0.44 0.44 0.44 0.44 18.11 6.63 18.11 6.63 6.63 18.11 6.63" style="fill:#7383bf"/><polygon points="8.39 19.88 8.39 26.06 26.06 26.06 26.06 8.39 19.88 8.39 19.88 19.88 8.39 19.88" style="fill:#7383bf"/><polygon points="8.39 18.11 18.11 18.11 18.11 8.39 8.39 8.39 8.39 18.11" style="fill:#556080"/><path d="M9.07,20H2V1.5H20.55V8.57H9.07Zm-6.18-.88h5.3V7.68H19.67V2.38H2.88Z" transform="translate(-2 -1.5)"/><path d="M28.5,28H10V20.93H21.43V9.45H28.5Zm-17.67-.88H27.62V10.33h-5.3V21.82H10.83Z" transform="translate(-2 -1.5)"/><path d="M20.55,20H10V9.45h10.6V20Zm-9.72-.88h8.83V10.33H10.83Z" transform="translate(-2 -1.5)"/></svg>