<?xml version="1.0" encoding="utf-8"?>
<!-- Generator: Adobe Illustrator 18.0.0, SVG Export Plug-In . SVG Version: 6.00 Build 0)  -->
<!DOCTYPE svg PUBLIC "-//W3C//DTD SVG 1.1//EN" "http://www.w3.org/Graphics/SVG/1.1/DTD/svg11.dtd">
<svg version="1.1" id="Layer_1" xmlns="http://www.w3.org/2000/svg" xmlns:xlink="http://www.w3.org/1999/xlink" x="0px" y="0px"
	 width="30px" height="30px" viewBox="0 0 30 30" enable-background="new 0 0 30 30" xml:space="preserve">
<g>
	<path fill="none" d="M9.2,13.9c1.7,0,3-1.7,3.1-3.7c0,0,1.3-2.4,1.3-2.4c-0.1-0.3-0.2-1-0.7-1.7c-0.8-1.2-2-1.8-3.7-1.8
		c0,0,0,0,0,0c0,0,0,0,0,0c0,0,0,0,0,0c0,0,0,0,0,0C7.5,4.4,6.3,5,5.5,6.1C5.1,6.8,4.9,7.5,4.9,7.8c0,0,1.3,2.3,1.3,2.4
		C6.2,12.2,7.5,13.9,9.2,13.9z"/>
	<path fill="none" d="M15.1,16.3c0-0.4,0.3-0.7,0.7-0.7c0.4,0,0.7,0.3,0.7,0.7c0,1,0.3,2,0.9,2.6c0,0,0,0,0,0.1
		c0.6,0.7,1.3,1.1,2.1,1.1c0.8,0,1.6-0.4,2.1-1.1c0,0,0,0,0-0.1c0.5-0.7,0.9-1.6,0.9-2.6c0-0.4,0.3-0.7,0.7-0.7
		c0.4,0,0.7,0.3,0.7,0.7c0,0.5-0.1,1.1-0.2,1.6l1.7-0.8c-0.5-1.6-2.1-6.2-6-6.5c-3.9,0.3-5.5,4.9-6,6.5l1.7,0.8
		C15.2,17.3,15.1,16.8,15.1,16.3z"/>
	<path fill="#73D0F4" d="M24.7,23c-1.3-0.9-3.1-1.5-5-1.5c-1.9,0-3.7,0.5-5,1.5c-1,0.7-1.6,1.6-1.9,2.5h13.8
		C26.3,24.6,25.7,23.7,24.7,23z"/>
	<path fill="#73D0F4" d="M15,19.3l-2.5-1.2C12.1,18,12,17.7,12,17.3c0,0,0.1-0.6,0.4-1.4c-1-0.4-2.1-0.5-3.2-0.5
		c-1.9,0-3.7,0.5-5,1.5c-1,0.7-1.6,1.6-1.9,2.5L15,19.3L15,19.3z"/>
	<path fill="#3D6889" d="M25.5,21.8c-0.9-0.6-1.9-1.1-3.1-1.4c0.1-0.1,0.3-0.3,0.4-0.4l4-1.9c0.3-0.1,0.5-0.5,0.4-0.8
		c0-0.1-0.4-2-1.5-3.9c-1.5-2.7-3.6-4.2-6.1-4.3c0,0,0,0,0,0c0,0,0,0,0,0c0,0,0,0,0,0c0,0,0,0,0,0c-2.5,0.2-4.5,1.6-6.1,4.3
		c-0.2,0.4-0.4,0.8-0.6,1.1c-0.3-0.1-0.6-0.2-1-0.3c1-0.9,1.6-2.2,1.7-3.7c0,0,0,0,0-0.1L15,8.3C15,8.2,15.1,8,15.1,7.9
		c0-0.1-0.1-1.3-0.9-2.5C13.5,4.2,12,2.9,9.2,2.9c0,0,0,0,0,0c0,0,0,0,0,0C6.4,2.9,5,4.2,4.2,5.4C3.5,6.6,3.4,7.8,3.4,7.9
		c0,0.1,0,0.3,0.1,0.4l1.2,2.1c0,0,0,0.1,0,0.1c0.1,1.5,0.8,2.8,1.7,3.7c-1.1,0.3-2.2,0.8-3.1,1.4c-1.7,1.2-2.6,2.8-2.6,4.5
		c0,0.4,0.3,0.7,0.7,0.7h14.1c-0.7,0.3-1.3,0.6-1.8,1c-1.7,1.2-2.6,2.8-2.6,4.5c0,0.4,0.3,0.7,0.7,0.7h15.5c0.4,0,0.7-0.3,0.7-0.7
		C28.1,24.6,27.2,23,25.5,21.8z M12.7,25.5c0.2-0.9,0.9-1.8,1.9-2.5c1.3-0.9,3.1-1.5,5-1.5c1.9,0,3.7,0.5,5,1.5
		c1,0.7,1.6,1.6,1.9,2.5H12.7z M4.2,16.8c1.3-0.9,3.1-1.5,5-1.5c1.1,0,2.2,0.2,3.2,0.5c-0.3,0.8-0.4,1.4-0.4,1.4
		c-0.1,0.3,0.1,0.7,0.4,0.8l2.5,1.2H2.3C2.5,18.4,3.2,17.5,4.2,16.8z M19.7,10.6c3.9,0.3,5.5,4.9,6,6.5L24,17.8
		c0.1-0.5,0.2-1,0.2-1.6c0-0.4-0.3-0.7-0.7-0.7c-0.4,0-0.7,0.3-0.7,0.7c0,1-0.3,2-0.9,2.6c0,0,0,0,0,0.1c-0.6,0.7-1.3,1.1-2.1,1.1
		c-0.8,0-1.6-0.4-2.1-1.1c0,0,0,0,0-0.1c-0.5-0.7-0.9-1.6-0.9-2.6c0-0.4-0.3-0.7-0.7-0.7c-0.4,0-0.7,0.3-0.7,0.7
		c0,0.5,0.1,1.1,0.2,1.6l-1.7-0.8C14.1,15.4,15.8,10.8,19.7,10.6z M6.1,10.2c0,0-1.3-2.4-1.3-2.4c0.1-0.3,0.2-1,0.7-1.7
		c0.8-1.2,2-1.8,3.7-1.8c0,0,0,0,0,0c0,0,0,0,0,0c0,0,0,0,0,0c0,0,0,0,0,0c1.7,0,2.9,0.6,3.7,1.8c0.4,0.7,0.6,1.3,0.7,1.7
		c0,0-1.3,2.3-1.3,2.4c0,2.1-1.4,3.7-3.1,3.7C7.5,13.9,6.2,12.2,6.1,10.2z"/>
</g>
</svg>
