<?xml version="1.0" encoding="utf-8"?>
<!-- Generator: Adobe Illustrator 18.0.0, SVG Export Plug-In . SVG Version: 6.00 Build 0)  -->
<!DOCTYPE svg PUBLIC "-//W3C//DTD SVG 1.1//EN" "http://www.w3.org/Graphics/SVG/1.1/DTD/svg11.dtd">
<svg version="1.1" id="Layer_1" xmlns="http://www.w3.org/2000/svg" xmlns:xlink="http://www.w3.org/1999/xlink" x="0px" y="0px"
	 width="30px" height="30px" viewBox="0 0 30 30" enable-background="new 0 0 30 30" xml:space="preserve">
<rect x="1.4" y="5.6" fill="#5EBAE7" width="27.2" height="18.9"/>
<rect x="15" y="5.6" fill="#36A9E1" width="13.6" height="18.9"/>
<g>
	<polygon fill="#FFFFFF" points="18.1,17.8 12.4,17.8 3.6,22.7 26.5,22.7 	"/>
	<rect x="3.2" y="7.3" fill="#FFFFFF" width="23.7" height="10.5"/>
</g>
<circle fill="#5EBAE7" cx="21.2" cy="15.2" r="3.5"/>
<g>
	<polygon fill="#D5C9B3" points="26.5,17.8 16.8,17.8 26.5,22.7 26.9,22.2 	"/>
	<polygon fill="#D5C9B3" points="3.2,17.8 12.8,17.8 3.2,22.7 3.2,22.2 	"/>
</g>
<polygon fill="#CBBBA0" points="11.1,14.1 8,17.4 8.5,17.8 21.6,17.8 22.5,17.4 16.8,11.7 12.8,15.7 "/>
<g>
	<path fill="#1D1D1B" d="M29.1,24.9H1V5.1h28.1V24.9z M1.9,24h26.3V6H1.9V24z"/>
	<path fill="#1D1D1B" d="M2.8,6.9v16.2h24.6V6.9C27.3,6.9,2.8,6.9,2.8,6.9z M3.6,18.3H11L3.6,22C3.6,22,3.6,18.3,3.6,18.3z
		 M21.7,17.4H8.4l2.7-2.7l1.5,1.5l4-4L21.7,17.4z M18.8,13.3c0.6-0.7,1.5-1.2,2.4-1.2c1.7,0,3.1,1.4,3.1,3.1c0,0.8-0.3,1.6-0.9,2.2
		h-0.4h0L18.8,13.3z M15.5,22.2V20h-0.9v2.2H5l7.9-4h1.7v0.9h0.9v-0.9h1.7l7.9,4H15.5L15.5,22.2z M26.5,22l-7.4-3.7h7.4V22z
		 M26.5,17.4h-2c0.4-0.6,0.7-1.4,0.7-2.2c0-2.2-1.8-3.9-3.9-3.9c-1.2,0-2.3,0.5-3,1.4l-1.6-1.6l-4,4l-1.5-1.5l-3.9,3.9H3.6V7.7h22.8
		V17.4L26.5,17.4z"/>
	<rect x="5.4" y="9.5" fill="#1D1D1B" width="4.4" height="0.9"/>
	<rect x="5.4" y="11.3" fill="#1D1D1B" width="0.9" height="0.9"/>
	<rect x="7.1" y="11.3" fill="#1D1D1B" width="0.9" height="0.9"/>
	<rect x="8.9" y="11.3" fill="#1D1D1B" width="0.9" height="0.9"/>
</g>
</svg>
