<?xml version="1.0" encoding="utf-8"?>
<!-- Generator: Adobe Illustrator 18.0.0, SVG Export Plug-In . SVG Version: 6.00 Build 0)  -->
<!DOCTYPE svg PUBLIC "-//W3C//DTD SVG 1.1//EN" "http://www.w3.org/Graphics/SVG/1.1/DTD/svg11.dtd">
<svg version="1.1" id="Layer_1" xmlns="http://www.w3.org/2000/svg" xmlns:xlink="http://www.w3.org/1999/xlink" x="0px" y="0px"
	 width="30px" height="30px" viewBox="0 0 30 30" enable-background="new 0 0 30 30" xml:space="preserve">
<g>
	<g>
		<polygon fill="#FFB819" points="2.1,28 18.4,20.4 9.5,11.6 		"/>
		<circle fill="#FFD26C" cx="11.8" cy="18.2" r="2"/>
		<path fill="#FFD26C" d="M6.3,18.8c0.5,0,1.1-0.2,1.5-0.6c0.8-0.8,0.8-2,0-2.8L6.3,18.8z"/>
		<path fill="#FFD26C" d="M4.1,25.9c-0.4,0.4-0.6,0.9-0.6,1.4l3.3-1.5C6,25.1,4.9,25.2,4.1,25.9z"/>
		<path fill="#FFD26C" d="M12,21.9c-0.5,0.5-0.7,1.1-0.5,1.7l3.5-1.6c0,0-0.1-0.1-0.1-0.1C14,21.1,12.8,21.1,12,21.9z"/>
		<circle fill="#FFD26C" cx="7.2" cy="22.1" r="2"/>
		<polygon fill="#004D7A" points="8.6,13.7 16.3,21.4 18.4,20.4 9.5,11.6 		"/>
	</g>
	<circle fill="#00BCB4" cx="11.4" cy="7.5" r="1.4"/>
	<circle fill="#00BCB4" cx="21.8" cy="18.4" r="1.4"/>
	<circle fill="#FFB819" cx="24.7" cy="12.4" r="1.4"/>
	<circle fill="#FFB819" cx="14.4" cy="2.6" r="1.4"/>
	<circle fill="#D85C72" cx="18.2" cy="14.5" r="1.4"/>
	<circle fill="#D85C72" cx="19.1" cy="6.7" r="1.4"/>
	<circle fill="#D85C72" cx="26" cy="7.3" r="1.4"/>
	<path fill="#00BCB4" d="M11.3,11.7c-0.3,0-0.5-0.2-0.5-0.5s0.2-0.5,0.5-0.5c1.9,0,3.4-1.5,3.4-3.4c0-2.4,2-4.4,4.4-4.4
		c2.4,0,4.4,2,4.4,4.4c0,0.3-0.2,0.5-0.5,0.5c-0.3,0-0.5-0.2-0.5-0.5C22.4,5.5,20.9,4,19,4c-1.9,0-3.4,1.5-3.4,3.4
		C15.7,9.8,13.7,11.7,11.3,11.7z"/>
	<path fill="#FFB819" d="M24.4,16.6c-1.9,0-3.4-1.5-3.4-3.4c0-1.3-1.1-2.4-2.4-2.4c-1.3,0-2.4,1.1-2.4,2.4c0,0.3-0.2,0.5-0.5,0.5
		c-0.3,0-0.5-0.2-0.5-0.5c0-1.9,1.5-3.4,3.4-3.4c1.9,0,3.4,1.5,3.4,3.4c0,1.3,1.1,2.4,2.4,2.4s2.4-1.1,2.4-2.4
		c0-0.3,0.2-0.5,0.5-0.5c0.3,0,0.5,0.2,0.5,0.5C27.8,15,26.3,16.6,24.4,16.6z"/>
</g>
</svg>
