<?xml version="1.0" encoding="utf-8"?>
<!-- Generator: Adobe Illustrator 18.0.0, SVG Export Plug-In . SVG Version: 6.00 Build 0)  -->
<!DOCTYPE svg PUBLIC "-//W3C//DTD SVG 1.1//EN" "http://www.w3.org/Graphics/SVG/1.1/DTD/svg11.dtd">
<svg version="1.1" id="Layer_1" xmlns="http://www.w3.org/2000/svg" xmlns:xlink="http://www.w3.org/1999/xlink" x="0px" y="0px"
	 width="30px" height="30px" viewBox="0 0 30 30" enable-background="new 0 0 30 30" xml:space="preserve">
<rect x="2.5" y="5.4" fill="#87DD50" width="25.9" height="0.4"/>
<g>
	<circle fill="#62B72A" cx="2.4" cy="5.5" r="0.4"/>
	<circle fill="#62B72A" cx="28.4" cy="5.5" r="0.4"/>
</g>
<path fill="#EF3388" d="M26.2,23.9L26.1,23H26c-0.7,0.9-1.9,1.4-3.4,1.4c-2.3,0-3.6-1.7-3.6-3.4c0-2.8,2.4-4.4,6.7-4.3v-0.2
	c0-0.7-0.3-2-2.3-2c-1.1,0-2.3,0.3-3,0.8l-0.6-1.9c0.8-0.5,2.4-1,4.1-1c3.6,0,4.7,2.3,4.7,4.7v4.1c0,1-0.1,2.1,0,2.5L26.2,23.9
	L26.2,23.9L26.2,23.9z M25.8,18.6c-1.7,0-3.9,0.4-3.9,2.1c0,1.1,0.7,1.6,1.6,1.6c1.1,0,1.9-0.7,2.2-1.6c0.1-0.2,0-0.4,0-0.6
	L25.8,18.6L25.8,18.6z"/>
<path fill="#BC086B" d="M28.8,21.4v-4.1c0-1-0.2-2.1-0.7-2.8c-0.2,1.6-1,3.1-2.3,4.2v1.4c0,0.2,0,0.4,0,0.6
	c-0.3,0.8-1.1,1.6-2.2,1.6c-0.9,0-1.6-0.5-1.6-1.6c0,0,0-0.1,0-0.2c-0.3,0-0.5,0-0.8,0c-0.7,0-1.3-0.1-1.9-0.3c0,0.2,0,0.5,0,0.7
	c0,1.7,1.3,3.5,3.5,3.5c1.5,0,2.6-0.6,3.4-1.4h0.1l0.2,0.9h2.6C28.7,23.5,28.8,22.4,28.8,21.4z"/>
<g>
	<path fill="#C1B8BC" d="M16.5,25.8c0.1,0,0.2,0.1,0.2,0.2v1.1c0,0.1-0.1,0.3-0.3,0.3h-1c-0.1,0-0.2-0.1-0.2-0.2c0,0,0-0.2,0.2-0.2
		h0.9V26C16.3,25.9,16.4,25.8,16.5,25.8z"/>
	<path fill="#C1B8BC" d="M2.7,8C2.6,8,2.5,7.9,2.5,7.9v-1c0-0.1,0-0.2,0.2-0.2h0.8c0.1,0,0.2,0.1,0.2,0.2c0,0,0,0.2-0.2,0.2H2.9v0.8
		C2.9,8,2.8,8,2.7,8z"/>
	<path fill="#C1B8BC" d="M16.5,8c0.1,0,0.2-0.1,0.2-0.2v-1c0-0.1-0.1-0.2-0.3-0.2h-0.8c-0.1,0-0.2,0.1-0.2,0.2c0,0,0,0.2,0.2,0.2
		h0.6v0.8C16.3,8,16.4,8,16.5,8z"/>
	<path fill="#C1B8BC" d="M2.3,25.8C2.2,25.8,2,25.9,2,26v1.1c0,0.1,0,0.3,0.2,0.3h0.9c0.1,0,0.2-0.1,0.2-0.2c0,0,0-0.2-0.2-0.2H2.5
		V26C2.5,25.9,2.3,25.8,2.3,25.8z"/>
</g>
<path fill="#EF3388" d="M6.7,19.6l-1.3,4.3H2.4l5-15.5h3.7l5.1,15.5h-3.1l-1.4-4.3H6.7z M11.2,17.4l-1.3-3.9c-0.3-0.9-0.6-1.7-0.8-3
	h0c-0.2,1.3-0.5,2.1-0.7,3l-1.2,3.9H11.2z"/>
<g>
	<path fill="#BC086B" d="M5.3,19.9c-0.5,0-1-0.1-1.5-0.2l-1.4,4.2h2.9l1.3-4.2C6.2,19.8,5.8,19.9,5.3,19.9z"/>
	<path fill="#BC086B" d="M13.1,14.5c-0.4,1.1-1.1,2.1-1.9,2.8v0h0c-1.1,1.3-2.4,1.7-4,2.2h4.5l1.4,4.3h3.1L13.1,14.5z"/>
</g>
</svg>
