<svg id="Layer_1" data-name="Layer 1" xmlns="http://www.w3.org/2000/svg" width="24" height="24" viewBox="0 0 24 24"><title>lfb-like-box</title><path d="M15,27h-.1A12,12,0,0,1,15,3h0A12,12,0,0,1,25.67,20.49l1,3.68a1,1,0,0,1-1.28,1.28l-2.76-.74A.7.7,0,0,1,23,23.36l2.16.58-.9-3.35a.7.7,0,0,1,.06-.52A10.6,10.6,0,0,0,15,4.4h0a10.6,10.6,0,0,0-.08,21.2,10.5,10.5,0,0,0,4.76-1.09.7.7,0,1,1,.62,1.26A11.88,11.88,0,0,1,15,27Z" transform="translate(-3 -3)" style="fill:#2d527c"/><path d="M15.3,21.44H13.7a1.15,1.15,0,0,1-1.15-1.15v-3.6h0a1.28,1.28,0,0,1-1.28-1.28V13.93a1.28,1.28,0,0,1,1.28-1.28h0v-.91A3.25,3.25,0,0,1,16,8.28h1.46a1.28,1.28,0,0,1,1.27,1.28v1.1a1.28,1.28,0,0,1-1.28,1.28h-.78v.71h.76A1.28,1.28,0,0,1,18.71,14l-.13,1.48a1.27,1.27,0,0,1-1.27,1.16h-.73v3.48A1.28,1.28,0,0,1,15.3,21.44ZM13.94,20h1.23V16a.7.7,0,0,1,.7-.7h1.31l.11-1.23H16a.7.7,0,0,1-.7-.7V11.88a1.25,1.25,0,0,1,1.28-1.33h.78V9.69H16a1.87,1.87,0,0,0-2.07,2.06v1.61a.7.7,0,0,1-.7.7h-.61v1.23h.62a.7.7,0,0,1,.7.7V20h0Z" transform="translate(-3 -3)" style="fill:#2d527c"/></svg>