<svg id="Layer_1" data-name="Layer 1" xmlns="http://www.w3.org/2000/svg" width="20.56" height="27.23" viewBox="0 0 20.56 27.23"><title>fb-like</title><path id="_Path_" data-name="&lt;Path&gt;" d="M9.63,28H5.72a.22.22,0,0,1-.22-.22V17.53a.22.22,0,0,1,.22-.22h3.9a.22.22,0,0,1,.22.22V27.76A.22.22,0,0,1,9.63,28Z" transform="translate(-5 -1.57)" style="fill:#3c92ca"/><path d="M15.4,2.08v4.4a.51.51,0,0,0,1,0V2.08a.51.51,0,0,0-1,0Z" transform="translate(-5 -1.57)" style="fill:#565656"/><path d="M25.05,11.47h-4.4a.51.51,0,1,0,0,1h4.4a.51.51,0,0,0,0-1Z" transform="translate(-5 -1.57)" style="fill:#565656"/><path d="M6.25,12a.51.51,0,0,0,.51.51h4.4a.51.51,0,0,0,0-1H6.76A.51.51,0,0,0,6.25,12Z" transform="translate(-5 -1.57)" style="fill:#565656"/><path d="M9,5a.5.5,0,1,0-.36.15A.51.51,0,0,0,9,5Z" transform="translate(-5 -1.57)" style="fill:#565656"/><path d="M10.35,6.32a.51.51,0,0,0,0,.71.5.5,0,0,0,.36.15A.49.49,0,0,0,11.06,7a.5.5,0,0,0-.71-.71Z" transform="translate(-5 -1.57)" style="fill:#565656"/><path d="M10,6a.5.5,0,1,0-.71,0,.5.5,0,0,0,.36.14A.47.47,0,0,0,10,6Z" transform="translate(-5 -1.57)" style="fill:#565656"/><path d="M11.39,7.36a.5.5,0,0,0-.14.36.5.5,0,1,0,.51-.51A.5.5,0,0,0,11.39,7.36Z" transform="translate(-5 -1.57)" style="fill:#565656"/><path d="M22.35,4.57a.5.5,0,1,0,.71.71.5.5,0,0,0,.14-.36.52.52,0,0,0-.14-.36.5.5,0,0,0-.36-.14A.49.49,0,0,0,22.35,4.57Z" transform="translate(-5 -1.57)" style="fill:#565656"/><path d="M20.63,7.5A.52.52,0,0,0,21,7.35a.5.5,0,1,0-.71,0A.5.5,0,0,0,20.63,7.5Z" transform="translate(-5 -1.57)" style="fill:#565656"/><path d="M21.32,5.6a.51.51,0,0,0,0,.71.5.5,0,0,0,.71,0,.5.5,0,1,0-.71-.71Z" transform="translate(-5 -1.57)" style="fill:#565656"/><path d="M19.09,8A.51.51,0,1,0,20,7.68a.5.5,0,0,0-.36-.14.52.52,0,0,0-.36.14A.5.5,0,0,0,19.09,8Z" transform="translate(-5 -1.57)" style="fill:#565656"/><path d="M25.47,18.48a2.84,2.84,0,0,0-2.84-2.84H18.22V12.45A3.33,3.33,0,0,0,17,9.58a3.65,3.65,0,0,0-3-.36.5.5,0,0,0-.35.48v3.57c0,2.81-3.26,3.77-3.4,3.81a.46.46,0,0,0-.17.09.94.94,0,0,0-.73-.36H5.94a.94.94,0,0,0-.94.94v9.79a.94.94,0,0,0,.94.94H9.4a.93.93,0,0,0,.81-.47,2.83,2.83,0,0,0,2,.79h8.73A3.05,3.05,0,0,0,24.28,26l1.17-7.47A.18.18,0,0,0,25.47,18.48Zm-16.13,9H6V17.82H9.34v9.65Zm13.95-1.59v0a2.07,2.07,0,0,1-2.38,1.9H12.18A1.84,1.84,0,0,1,10.35,26V18.05a.5.5,0,0,0,.24,0c.17,0,4.14-1.2,4.14-4.78V10.1a2.4,2.4,0,0,1,1.72.29,2.42,2.42,0,0,1,.76,2.06v3.69a.51.51,0,0,0,.51.51h4.92a1.84,1.84,0,0,1,1.83,1.8Z" transform="translate(-5 -1.57)"/></svg>