<?xml version="1.0" encoding="utf-8"?>
<!-- Generator: Adobe Illustrator 18.0.0, SVG Export Plug-In . SVG Version: 6.00 Build 0)  -->
<!DOCTYPE svg PUBLIC "-//W3C//DTD SVG 1.1//EN" "http://www.w3.org/Graphics/SVG/1.1/DTD/svg11.dtd">
<svg version="1.1" id="Layer_1" xmlns="http://www.w3.org/2000/svg" xmlns:xlink="http://www.w3.org/1999/xlink" x="0px" y="0px"
	 width="30px" height="30px" viewBox="0 0 30 30" enable-background="new 0 0 30 30" xml:space="preserve">
<g>
	<g>
		<path fill="#E810A0" d="M16.1,10.6c0.5,0.3,0.7,0.8,0.7,1.4c0,0.4-0.1,0.7-0.4,1c-0.2,0.3-0.6,0.5-1,0.7c0.5,0.2,1,0.4,1.3,0.7
			c0.3,0.3,0.5,0.8,0.5,1.2c0,0.7-0.3,1.2-0.8,1.6c-0.5,0.4-1.3,0.6-2.2,0.6c-0.9,0-1.7-0.2-2.2-0.6c-0.5-0.4-0.8-0.9-0.8-1.6
			c0-0.5,0.2-0.9,0.5-1.3c0.3-0.3,0.7-0.6,1.3-0.8c-0.4-0.2-0.8-0.4-1-0.7c-0.2-0.3-0.4-0.6-0.4-1c0-0.6,0.2-1.1,0.7-1.4
			c0.5-0.3,1.1-0.5,1.9-0.5C15,10.1,15.6,10.3,16.1,10.6z M12.6,14.6c-0.4,0.3-0.6,0.6-0.6,1.1c0,0.5,0.2,0.9,0.6,1.1
			c0.4,0.3,0.9,0.4,1.6,0.4c0.7,0,1.2-0.1,1.6-0.4c0.4-0.3,0.6-0.7,0.6-1.1c0-0.5-0.2-0.8-0.6-1.1c-0.4-0.3-0.9-0.4-1.6-0.4
			C13.5,14.2,13,14.3,12.6,14.6z M12.8,11.1c-0.3,0.2-0.5,0.6-0.5,1s0.2,0.7,0.5,1c0.3,0.2,0.8,0.3,1.4,0.3c0.6,0,1-0.1,1.3-0.3
			c0.3-0.2,0.5-0.6,0.5-1s-0.2-0.7-0.5-1c-0.3-0.2-0.8-0.3-1.3-0.3C13.6,10.8,13.2,10.9,12.8,11.1z"/>
		<rect x="11.3" y="19.9" fill="#E810A0" width="5.7" height="0.2"/>
		<rect x="18.6" y="15.8" fill="#E810A0" width="5.7" height="0.2"/>
		<path fill="#E810A0" d="M6.8,18.8h-1l3.4-6.9H5.3V13H4.5v-2h5.7v0.7L6.8,18.8z"/>
		<path fill="#E810A0" d="M20,7.3v1.8C20.4,9,20.9,9,21.3,9c0.6,0,1.1,0.1,1.5,0.3c0.4,0.2,0.8,0.5,1,0.8c0.2,0.3,0.3,0.7,0.3,1.2
			c0,0.5-0.1,1-0.4,1.3c-0.2,0.4-0.6,0.7-1,0.9c-0.4,0.2-0.9,0.3-1.5,0.3c-0.5,0-0.9-0.1-1.4-0.2c-0.5-0.2-0.9-0.4-1.3-0.6l0.4-0.8
			c0.3,0.2,0.7,0.4,1.1,0.6c0.4,0.1,0.8,0.2,1.2,0.2c0.6,0,1.1-0.2,1.5-0.5c0.4-0.3,0.5-0.7,0.5-1.2c0-0.5-0.2-0.8-0.5-1.1
			c-0.4-0.3-0.8-0.4-1.4-0.4c-0.3,0-0.6,0-1.1,0.1c-0.4,0-0.8,0.1-1.1,0.1V7.3H20z"/>
		<path fill="#E810A0" d="M23.6,23.3c0-0.1,0-0.3,0-0.4c0-0.5-0.2-0.9-0.5-1.2s-0.8-0.5-1.4-0.5c-0.4,0-0.8,0.1-1.1,0.2
			c-0.3,0.2-0.6,0.4-0.7,0.6c-0.2,0.3-0.2,0.6-0.2,0.9c0,0.1,0,0.3,0,0.4h-1c-0.1-0.5-0.2-1-0.2-1.6c0-0.8,0.1-1.5,0.4-2.1
			c0.3-0.6,0.7-1.1,1.2-1.4c0.5-0.3,1.1-0.5,1.8-0.5c0.4,0,0.8,0.1,1.2,0.2c0.4,0.1,0.8,0.2,1.1,0.4l-0.4,0.7
			c-0.3-0.1-0.6-0.3-0.9-0.4c-0.3-0.1-0.7-0.1-1-0.1c-0.8,0-1.4,0.3-1.9,0.8c-0.4,0.5-0.7,1.3-0.7,2.2c0,0.2,0,0.3,0,0.4
			c0.2-0.5,0.5-0.8,0.9-1.1c0.4-0.2,0.9-0.4,1.5-0.4c0.8,0,1.4,0.2,1.9,0.7c0.5,0.4,0.7,1,0.7,1.8c0,0.2,0,0.3,0,0.4H23.6z"/>
		<path fill="#E810A0" d="M15.7,23.3c-0.1-0.2-0.4-0.4-0.6-0.6c-0.3-0.2-0.7-0.3-1.1-0.3c-0.6,0-1.1,0.2-1.4,0.5
			c-0.1,0.1-0.2,0.2-0.3,0.3h-1c0.1-0.4,0.3-0.7,0.6-0.9c0.5-0.5,1.2-0.7,2-0.7c1,0,1.8,0.3,2.4,1c0.2,0.2,0.3,0.4,0.4,0.7H15.7z"/>
	</g>
	<rect x="2" y="4.8" fill="none" stroke="#2196F3" stroke-width="2" stroke-miterlimit="10" width="25" height="21"/>
</g>
</svg>
