<?xml version="1.0" encoding="utf-8"?>
<!-- Generator: Adobe Illustrator 18.0.0, SVG Export Plug-In . SVG Version: 6.00 Build 0)  -->
<!DOCTYPE svg PUBLIC "-//W3C//DTD SVG 1.1//EN" "http://www.w3.org/Graphics/SVG/1.1/DTD/svg11.dtd">
<svg version="1.1" id="Layer_1" xmlns="http://www.w3.org/2000/svg" xmlns:xlink="http://www.w3.org/1999/xlink" x="0px" y="0px"
	 width="30px" height="30px" viewBox="0 0 30 30" enable-background="new 0 0 30 30" xml:space="preserve">
<g>
	<g>
		<path fill="none" d="M17.1,12.2c1.9,0,3.4-1.5,3.4-3.4c0-1.9-1.5-3.4-3.4-3.4c-1.9,0-3.4,1.5-3.4,3.4
			C13.7,10.7,15.2,12.2,17.1,12.2z"/>
		<path fill="none" d="M10.7,12.7h3.5c-0.8-0.6-1.4-1.5-1.7-2.5C12.2,11.2,11.6,12,10.7,12.7z"/>
		<path fill="none" d="M7.8,12.2c1.9,0,3.4-1.5,3.4-3.4c0-1.9-1.5-3.4-3.4-3.4S4.5,7,4.5,8.8C4.5,10.7,6,12.2,7.8,12.2z"/>
		<path fill="none" d="M4.5,23.1h17.1v-1.5v-6v-1.5H4.5V23.1z"/>
		<rect x="8.7" y="17.8" fill="#73D0F4" width="3.6" height="2.2"/>
		<polygon fill="#73D0F4" points="23,21.2 27.3,23.4 27.3,13.9 23,16.1 		"/>
		<path fill="#3D6889" d="M8,21.5h5c0.4,0,0.7-0.3,0.7-0.7v-3.7c0-0.4-0.3-0.7-0.7-0.7H8c-0.4,0-0.7,0.3-0.7,0.7v3.7
			C7.3,21.2,7.6,21.5,8,21.5z M8.7,17.8h3.6V20H8.7V17.8z"/>
		<path fill="#3D6889" d="M28.4,12.1c-0.2-0.1-0.5-0.1-0.7,0L23,14.5v-1.1c0-0.4-0.3-0.7-0.7-0.7H20c1.2-0.9,1.9-2.3,1.9-3.8
			c0-2.7-2.2-4.8-4.8-4.8c-2.2,0-4.1,1.5-4.6,3.5C11.9,5.5,10,4,7.8,4C5.2,4,3,6.2,3,8.8c0,1.6,0.8,3,1.9,3.8H3.7
			C3.3,12.7,3,13,3,13.4v10.5c0,0.4,0.3,0.7,0.7,0.7h18.5c0.4,0,0.7-0.3,0.7-0.7v-1.1l4.6,2.4c0.1,0.1,0.2,0.1,0.3,0.1
			c0.1,0,0.3,0,0.4-0.1c0.2-0.1,0.3-0.4,0.3-0.6V12.7C28.7,12.4,28.6,12.2,28.4,12.1z M17.1,5.5c1.9,0,3.4,1.5,3.4,3.4
			c0,1.9-1.5,3.4-3.4,3.4c-1.9,0-3.4-1.5-3.4-3.4C13.7,7,15.2,5.5,17.1,5.5z M14.2,12.7h-3.5c0.8-0.6,1.4-1.5,1.7-2.5
			C12.8,11.2,13.4,12,14.2,12.7z M4.5,8.8C4.5,7,6,5.5,7.8,5.5s3.4,1.5,3.4,3.4c0,1.9-1.5,3.4-3.4,3.4S4.5,10.7,4.5,8.8z M21.5,15.6
			v6v1.5H4.5v-9h17.1V15.6z M27.3,23.4L23,21.2v-5.1l4.3-2.2L27.3,23.4L27.3,23.4z"/>
	</g>
</g>
</svg>
