<?xml version="1.0" encoding="utf-8"?>
<!-- Generator: Adobe Illustrator 18.0.0, SVG Export Plug-In . SVG Version: 6.00 Build 0)  -->
<!DOCTYPE svg PUBLIC "-//W3C//DTD SVG 1.1//EN" "http://www.w3.org/Graphics/SVG/1.1/DTD/svg11.dtd">
<svg version="1.1" id="Layer_1" xmlns="http://www.w3.org/2000/svg" xmlns:xlink="http://www.w3.org/1999/xlink" x="0px" y="0px"
	 width="30px" height="30px" viewBox="0 0 30 30" enable-background="new 0 0 30 30" xml:space="preserve">
<path fill="#CDDC39" stroke="#BFBFBF" stroke-width="3.304" stroke-miterlimit="10" d="M33.4-2.8"/>
<g>
	<path fill="#8BC34A" d="M27.9,3.9H1.9C1.4,3.9,1,4.3,1,4.8v21.8c0,0.5,0.4,0.9,0.9,0.9h25.9c0.5,0,0.9-0.4,0.9-0.9V4.8
		C28.8,4.3,28.4,3.9,27.9,3.9z M1.5,20.9H5c0.1,0,0.2-0.1,0.2-0.2S5.2,20.4,5,20.4H1.5V7.7h26.8v2.5h-5.1c-0.1,0-0.2,0.1-0.2,0.2
		s0.1,0.2,0.2,0.2h5.1v11.4h-5.8c-0.1,0-0.2,0.1-0.2,0.2s0.1,0.2,0.2,0.2h5.8v2.6H1.5V20.9z M1.9,4.4h25.9c0.2,0,0.4,0.2,0.4,0.4
		v0.9H10.7c-0.1,0-0.2,0.1-0.2,0.2s0.1,0.2,0.2,0.2h17.6v1H1.5V4.8C1.5,4.6,1.7,4.4,1.9,4.4z M27.9,27H1.9c-0.2,0-0.4-0.2-0.4-0.4
		v-0.9h26.8v0.9C28.3,26.8,28.1,27,27.9,27z"/>
	<path fill="#8BC34A" d="M3.2,6.7C3.6,6.7,4,6.3,4,5.8S3.6,4.9,3.2,4.9S2.3,5.3,2.3,5.8S2.7,6.7,3.2,6.7z M3.2,5.4
		c0.2,0,0.4,0.2,0.4,0.4S3.4,6.2,3.2,6.2C3,6.2,2.8,6,2.8,5.8S3,5.4,3.2,5.4z"/>
	<path fill="#8BC34A" d="M5.6,6.7c0.5,0,0.9-0.4,0.9-0.9S6.1,4.9,5.6,4.9S4.7,5.3,4.7,5.8S5.1,6.7,5.6,6.7z M5.6,5.4
		C5.8,5.4,6,5.6,6,5.8S5.8,6.2,5.6,6.2C5.4,6.2,5.2,6,5.2,5.8S5.4,5.4,5.6,5.4z"/>
	<path fill="#8BC34A" d="M8,6.7c0.5,0,0.9-0.4,0.9-0.9S8.5,4.9,8,4.9S7.1,5.3,7.1,5.8S7.5,6.7,8,6.7z M8,5.4c0.2,0,0.4,0.2,0.4,0.4
		S8.2,6.2,8,6.2C7.8,6.2,7.6,6,7.6,5.8C7.6,5.6,7.8,5.4,8,5.4z"/>
	<path fill="#8BC34A" d="M9.1,12.3c0-0.2-0.1-0.3-0.2-0.5L4.6,8.7C4.5,8.6,4.3,8.5,4.2,8.5C4,8.5,3.8,8.6,3.6,8.8L3.3,9.2
		c-0.2,0.3-0.2,0.7,0.1,1l2.7,2.1c0,0,0,0,0,0.1c0,0,0,0,0,0.1l-2.7,2.1c-0.3,0.2-0.4,0.7-0.1,1l0.3,0.4C3.8,16,4,16.1,4.2,16.1
		c0.1,0,0.3,0,0.4-0.1l4.3-3.2C9,12.7,9.1,12.5,9.1,12.3z M8.6,12.4l-4.3,3.2c0,0-0.1,0-0.1,0c-0.1,0-0.1,0-0.2-0.1l-0.3-0.4
		c-0.1-0.1,0-0.2,0-0.3l2.7-2.1c0.2-0.1,0.2-0.3,0.2-0.5c0-0.2-0.1-0.3-0.2-0.5L3.7,9.8c-0.1-0.1-0.1-0.2,0-0.3L4,9.1
		C4.1,9,4.1,9,4.2,9c0,0,0.1,0,0.1,0l4.3,3.2C8.6,12.3,8.6,12.3,8.6,12.4C8.6,12.4,8.6,12.4,8.6,12.4z"/>
	<path fill="#8BC34A" d="M14.3,14.2H9.2c-0.5,0-0.9,0.4-0.9,0.9c0,0.5,0.4,0.9,0.9,0.9h5.1c0.5,0,0.9-0.4,0.9-0.9
		C15.3,14.7,14.8,14.2,14.3,14.2z M14.3,15.7H9.2c-0.3,0-0.5-0.2-0.5-0.5c0-0.3,0.2-0.5,0.5-0.5h5.1c0.3,0,0.5,0.2,0.5,0.5
		C14.8,15.4,14.6,15.7,14.3,15.7z"/>
</g>
</svg>
