<svg xmlns="http://www.w3.org/2000/svg" viewBox="0 0 1102 102.23" preserveAspectRatio="none">
  <path class="qx-shape-fill" opacity="0.46" d="M1510,492h0c0,46.48-49.69,76.06-90.55,53.91l-34-18.41a84,84,0,0,0-79.19-.46h0a290.19,290.19,0,0,1-227.7,18.4l-30.07-10.09a183.13,183.13,0,0,0-120.75,1.46l-70,25.41a252.93,252.93,0,0,1-179.66-2.71h0a121.39,121.39,0,0,0-112.16,11.81h0a82.76,82.76,0,0,1-112.39-19.58L408,483" transform="translate(-408 -483)"/>
  <path class="qx-shape-fill" opacity="0.57" d="M1510,488h0c0,46.48-49.69,76.06-90.55,53.91l-34-18.41a84,84,0,0,0-79.19-.46h0a290.19,290.19,0,0,1-227.7,18.4l-30.07-10.09a183.13,183.13,0,0,0-120.75,1.46l-70,25.41a252.93,252.93,0,0,1-179.66-2.71h0a121.39,121.39,0,0,0-112.16,11.81h0a82.76,82.76,0,0,1-112.39-19.58L408,483" transform="translate(-408 -483)"/>
  <path class="qx-shape-fill" d="M410,483H1510c0,46.48-49.69,76.06-90.55,53.91l-34-18.41a84,84,0,0,0-79.19-.46h0a290.19,290.19,0,0,1-227.7,18.4l-30.07-10.09a183.13,183.13,0,0,0-120.75,1.46l-70,25.41a252.93,252.93,0,0,1-179.66-2.71h0a121.39,121.39,0,0,0-112.16,11.81h0a82.76,82.76,0,0,1-112.39-19.58L408,483Z" transform="translate(-408 -483)"/>
</svg>
