<svg id="Layer_1" data-name="Layer 1" xmlns="http://www.w3.org/2000/svg" width="27.53" height="17.98" viewBox="0 0 27.53 17.98"><title>google plush</title><path d="M11.31,17h4.15A5.27,5.27,0,1,1,14,11.34a.57.57,0,0,0,.78,0L16.32,9.9a.57.57,0,0,0,0-.83,8.46,8.46,0,0,0-5.67-2.32,8.49,8.49,0,1,0,8.31,9c0-.06,0-1.95,0-1.95H11.31a.57.57,0,0,0-.57.57v2.08A.57.57,0,0,0,11.31,17Z" transform="translate(-1.5 -6.25)" style="fill:none;stroke:#f34a38;stroke-miterlimit:10"/><path d="M26,14v-2a.5.5,0,0,0-.5-.5H23.79a.5.5,0,0,0-.5.5v2h-2a.5.5,0,0,0-.5.5v1.71a.5.5,0,0,0,.5.5h2v2a.5.5,0,0,0,.5.5H25.5a.5.5,0,0,0,.5-.5v-2h2a.5.5,0,0,0,.5-.5V14.46A.5.5,0,0,0,28,14Z" transform="translate(-1.5 -6.25)" style="fill:none;stroke:#f34a38;stroke-miterlimit:10"/></svg>