<svg id="Layer_1" data-name="Layer 1" xmlns="http://www.w3.org/2000/svg" width="27.44" height="14.85" viewBox="0 0 27.44 14.85"><title>dropcap</title><rect y="12.56" width="27.44" height="2.28" style="fill:#010002"/><path d="M8,16.1a.37.37,0,0,1-.15.32,1.41,1.41,0,0,1-.76.15H6.87v.25h4.51v-.25a1.08,1.08,0,0,1-.66-.25,4.54,4.54,0,0,1-.79-1.37L6.56,7.31H6.43L3.1,14.74a5.45,5.45,0,0,1-.8,1.4,1.43,1.43,0,0,1-.82.42v.25h3.1v-.25a2.78,2.78,0,0,1-.91-.16.63.63,0,0,1-.32-.58,2,2,0,0,1,.19-.75l.39-.9H7.22l.5,1.16a5.07,5.07,0,0,1,.21.52A.84.84,0,0,1,8,16.1Z" transform="translate(-1.48 -7.3)" style="fill:#010002"/><rect x="11.91" y="4.19" width="15.53" height="2.28" style="fill:#010002"/><rect x="11.91" width="15.53" height="2.28" style="fill:#010002"/><polygon points="4.13 3.15 5.51 6.36 2.69 6.36 4.13 3.15" style="fill:#fcfcfc"/><rect x="11.91" y="8.37" width="15.53" height="2.28" style="fill:#010002"/></svg>