<?xml version="1.0" encoding="utf-8"?>
<!-- Generator: Adobe Illustrator 18.0.0, SVG Export Plug-In . SVG Version: 6.00 Build 0)  -->
<!DOCTYPE svg PUBLIC "-//W3C//DTD SVG 1.1//EN" "http://www.w3.org/Graphics/SVG/1.1/DTD/svg11.dtd">
<svg version="1.1" id="Layer_1" xmlns="http://www.w3.org/2000/svg" xmlns:xlink="http://www.w3.org/1999/xlink" x="0px" y="0px"
	 width="30px" height="30px" viewBox="0 0 30 30" enable-background="new 0 0 30 30" xml:space="preserve">
<g id="brandmark">
	<path id="j-green" fill="#7AC143" d="M6.8,15.2l-0.5-0.5C4.9,13.3,4.5,11.2,5,9.3C3.5,9,2.4,7.7,2.4,6.1c0-1.8,1.5-3.3,3.3-3.3
		c1.7,0,3,1.2,3.3,2.8c1.8-0.4,3.7,0.1,5.1,1.5l0.2,0.2l-2.5,2.5l-0.2-0.2c-0.8-0.8-2.1-0.8-2.9,0c-0.8,0.8-0.8,2.1,0,2.9l0.5,0.5
		l2.5,2.5l2.6,2.6l-2.5,2.5l-2.6-2.6L6.8,15.2L6.8,15.2z"/>
	<path id="j-orange" fill="#F9A541" d="M9.6,12.5l2.6-2.6l2.5-2.5L15.1,7c1.5-1.5,3.6-1.9,5.4-1.4c0.2-1.6,1.6-2.9,3.3-2.9
		c1.8,0,3.3,1.5,3.3,3.3c0,1.7-1.3,3.1-2.9,3.3c0.5,1.9,0.1,3.9-1.4,5.4L22.6,15l-2.4-2.5l0.2-0.2c0.8-0.8,0.8-2.1,0-2.9
		s-2.1-0.8-2.9,0l-0.5,0.5l-2.5,2.5l-2.6,2.6L9.6,12.5L9.6,12.5z"/>
	<path id="j-red" fill="#F44321" d="M20.6,24.9c-1.9,0.6-4,0.1-5.5-1.4l-0.2-0.2l2.5-2.5l0.2,0.2c0.8,0.8,2.1,0.8,2.9,0
		c0.8-0.8,0.8-2.1,0-2.9L20,17.7l-2.5-2.5L15,12.7l2.5-2.5l2.6,2.6l2.5,2.5l0.5,0.5c1.4,1.4,1.9,3.4,1.5,5.2
		c1.6,0.2,2.9,1.6,2.9,3.3c0,1.8-1.5,3.3-3.3,3.3C22.3,27.5,20.9,26.4,20.6,24.9L20.6,24.9z"/>
	<path id="j-blue" fill="#5091CD" d="M19.7,18l-2.6,2.6L14.6,23l-0.5,0.5c-1.4,1.4-3.4,1.9-5.2,1.5c-0.3,1.5-1.7,2.6-3.2,2.6
		c-1.8,0-3.3-1.5-3.3-3.3c0-1.6,1.1-2.9,2.6-3.2c-0.5-1.9,0-3.8,1.4-5.3l0.2-0.2L9,18l-0.2,0.2C8,19,8,20.3,8.8,21.1
		c0.8,0.8,2.1,0.8,2.9,0l0.5-0.5l2.5-2.5l2.6-2.6L19.7,18L19.7,18z"/>
</g>
</svg>
