<?xml version="1.0" encoding="utf-8"?>
<!-- Generator: Adobe Illustrator 18.0.0, SVG Export Plug-In . SVG Version: 6.00 Build 0)  -->
<!DOCTYPE svg PUBLIC "-//W3C//DTD SVG 1.1//EN" "http://www.w3.org/Graphics/SVG/1.1/DTD/svg11.dtd">
<svg version="1.1" id="Layer_1" xmlns="http://www.w3.org/2000/svg" xmlns:xlink="http://www.w3.org/1999/xlink" x="0px" y="0px"
	 width="30px" height="30px" viewBox="0 0 30 30" enable-background="new 0 0 30 30" xml:space="preserve">
<g>
	<g>
		<g>
			<path fill="#F700F7" d="M27.9,6.2H2.5C2.2,6.2,2,6.4,2,6.7V10v9.4v6.1C2,25.8,2.2,26,2.5,26h25.4c0.3,0,0.5-0.2,0.5-0.5v-6.1V10
				V6.7C28.4,6.4,28.2,6.2,27.9,6.2z M2.9,10.5h4.2v8.5H2.9V10.5z M27.4,18.9H26v-8.5h1.4V18.9z M27.4,9.5h-1.9
				c-0.3,0-0.5,0.2-0.5,0.5v9.4c0,0.3,0.2,0.5,0.5,0.5h1.9v5.2H2.9v0v-5.2h4.7c0.3,0,0.5-0.2,0.5-0.5V10c0-0.3-0.2-0.5-0.5-0.5H2.9
				V7.2h24.5V9.5z"/>
			<circle fill="#7D0084" cx="15.7" cy="22.7" r="0.9"/>
			<path fill="#F700F7" d="M10,19.9h13.2c0.3,0,0.5-0.2,0.5-0.5V10c0-0.3-0.2-0.5-0.5-0.5H10c-0.3,0-0.5,0.2-0.5,0.5v9.4
				C9.5,19.7,9.7,19.9,10,19.9z M10.5,10.5h12.2v8.5H10.5V10.5z"/>
			<rect x="10" y="22.2" fill="#7D0084" width="1.4" height="0.9"/>
			<rect x="12.4" y="22.2" fill="#7D0084" width="1.4" height="0.9"/>
			<rect x="17.5" y="22.2" fill="#7D0084" width="1.4" height="0.9"/>
			<rect x="19.9" y="22.2" fill="#7D0084" width="1.4" height="0.9"/>
		</g>
	</g>
</g>
</svg>
