<svg id="Layer_1" data-name="Layer 1" xmlns="http://www.w3.org/2000/svg" width="25.08" height="26.98" viewBox="0 0 25.08 26.98"><title>social-share</title><circle cx="4.26" cy="13.47" r="4.26" style="fill:#7383bf"/><circle cx="20.82" cy="22.72" r="4.26" style="fill:#7383bf"/><circle cx="20.82" cy="4.26" r="4.26" style="fill:#7383bf"/><path d="M10.43,14.26a.47.47,0,0,0,.24-.07L19.62,8.8A.47.47,0,0,0,19.13,8l-8.95,5.39a.47.47,0,0,0,.24.88Z" transform="translate(-2.38 -2.26)" style="fill:#424a60"/><path d="M19.62,22.69l-8.95-5.43a.47.47,0,1,0-.49.81l8.95,5.43a.47.47,0,0,0,.25.07.47.47,0,0,0,.25-.88Z" transform="translate(-2.38 -2.26)" style="fill:#424a60"/></svg>