<?xml version="1.0" encoding="utf-8"?>
<!-- Generator: Adobe Illustrator 18.0.0, SVG Export Plug-In . SVG Version: 6.00 Build 0)  -->
<!DOCTYPE svg PUBLIC "-//W3C//DTD SVG 1.1//EN" "http://www.w3.org/Graphics/SVG/1.1/DTD/svg11.dtd">
<svg version="1.1" id="Layer_1" xmlns="http://www.w3.org/2000/svg" xmlns:xlink="http://www.w3.org/1999/xlink" x="0px" y="0px"
	 width="30px" height="30px" viewBox="0 0 30 30" enable-background="new 0 0 30 30" xml:space="preserve">
<g>
	<path fill="#EA003D" d="M2.1,12h3.7c0.3,0,0.5-0.2,0.5-0.5V7.7c0-0.3-0.2-0.5-0.5-0.5H2.6V6.8l0.9-0.9c0.2-0.2,0.2-0.5,0-0.7
		C3.3,4.9,3,4.9,2.8,5.2L1.7,6.2C1.6,6.3,1.6,6.5,1.6,6.6v1.1v0.6v3.1C1.6,11.8,1.8,12,2.1,12z M5.3,8.3v2.7H2.6V8.4V8.3H5.3z"/>
	<path fill="#EA003D" d="M8.1,12h3.7c0.3,0,0.5-0.2,0.5-0.5V7.7c0-0.3-0.2-0.5-0.5-0.5H8.6V6.8l0.9-0.9c0.2-0.2,0.2-0.5,0-0.7
		C9.3,4.9,9,4.9,8.8,5.2L7.7,6.2C7.6,6.3,7.5,6.5,7.5,6.6v1.1v0.6v3.1C7.5,11.8,7.8,12,8.1,12z M11.3,8.3v2.7H8.6V8.4V8.3H11.3z"/>
	<path fill="#EA003D" d="M28.3,20.4h-3.7c-0.3,0-0.5,0.2-0.5,0.5v3.7c0,0.3,0.2,0.5,0.5,0.5h3.2v0.4l-0.9,0.9
		c-0.2,0.2-0.2,0.5,0,0.7c0.1,0.1,0.2,0.2,0.4,0.2s0.3-0.1,0.4-0.2l1.1-1.1c0.1-0.1,0.2-0.2,0.2-0.4v-1.1V24v-3.1
		C28.8,20.6,28.5,20.4,28.3,20.4z M25,24.1v-2.7h2.7V24v0.1H25z"/>
	<path fill="#EA003D" d="M22.3,20.4h-3.7c-0.3,0-0.5,0.2-0.5,0.5v3.7c0,0.3,0.2,0.5,0.5,0.5h3.2v0.4l-0.9,0.9
		c-0.2,0.2-0.2,0.5,0,0.7c0.1,0.1,0.2,0.2,0.4,0.2c0.1,0,0.3-0.1,0.4-0.2l1.1-1.1c0.1-0.1,0.2-0.2,0.2-0.4v-1.1V24v-3.1
		C22.8,20.6,22.6,20.4,22.3,20.4z M19.1,24.1v-2.7h2.7V24v0.1H19.1z"/>
	<path d="M14.5,12h13.8c0.3,0,0.5-0.2,0.5-0.5s-0.2-0.5-0.5-0.5H14.5c-0.3,0-0.5,0.2-0.5,0.5S14.2,12,14.5,12z"/>
	<path d="M28.3,14.2H2.1c-0.3,0-0.5,0.2-0.5,0.5s0.2,0.5,0.5,0.5h26.2c0.3,0,0.5-0.2,0.5-0.5S28.5,14.2,28.3,14.2z"/>
	<path d="M28.3,17.5H2.1c-0.3,0-0.5,0.2-0.5,0.5s0.2,0.5,0.5,0.5h26.2c0.3,0,0.5-0.2,0.5-0.5S28.5,17.5,28.3,17.5z"/>
	<path d="M15.9,24.1H2.1c-0.3,0-0.5,0.2-0.5,0.5s0.2,0.5,0.5,0.5h13.8c0.3,0,0.5-0.2,0.5-0.5S16.2,24.1,15.9,24.1z"/>
	<path d="M15.9,20.8H2.1c-0.3,0-0.5,0.2-0.5,0.5s0.2,0.5,0.5,0.5h13.8c0.3,0,0.5-0.2,0.5-0.5C16.4,21.1,16.2,20.8,15.9,20.8z"/>
</g>
</svg>
