<svg id="Alert" xmlns="http://www.w3.org/2000/svg" width="25.7" height="25.73" viewBox="0 0 25.7 25.73"><title>Image compare</title><path d="M10.76,23a.68.68,0,0,0-1,1l.77.77H7.42A3.7,3.7,0,0,1,3.72,21V18.7a.68.68,0,0,0-1.37,0V21a5.07,5.07,0,0,0,5.07,5.07h3.14l-.77.77A.68.68,0,0,0,10.27,28a.7.7,0,0,0,.48-.2l1.94-1.94a.68.68,0,0,0,0-1Z" transform="translate(-2.35 -2.27)" style="fill:#ffda44"/><path d="M14.31,2.27H3.09A.69.69,0,0,0,2.4,3V14.17a.69.69,0,0,0,.68.68H14.31a.69.69,0,0,0,.68-.68V3A.68.68,0,0,0,14.31,2.27Zm-.68,11.22H3.77V3.63h9.85Z" transform="translate(-2.35 -2.27)" style="fill:#ffda44"/><path d="M23,4.21H19.84l.77-.77a.68.68,0,1,0-1-1L17.71,4.41a.68.68,0,0,0,0,1l1.94,1.94a.69.69,0,0,0,.48.2.7.7,0,0,0,.48-.2.68.68,0,0,0,0-1l-.77-.77H23a3.7,3.7,0,0,1,3.7,3.7v2.29a.68.68,0,0,0,1.37,0V9.28A5.08,5.08,0,0,0,23,4.21Z" transform="translate(-2.35 -2.27)" style="fill:#ffda44"/><path d="M27.32,26.63a.68.68,0,0,0-.68.68.7.7,0,0,0,.2.48.68.68,0,0,0,1-1A.71.71,0,0,0,27.32,26.63Z" transform="translate(-2.35 -2.27)" style="fill:#ffda44"/><path d="M24.51,26.63a.68.68,0,1,0,.68.68A.69.69,0,0,0,24.51,26.63Z" transform="translate(-2.35 -2.27)" style="fill:#ffda44"/><path d="M18.9,26.63a.68.68,0,1,0,.68.68A.69.69,0,0,0,18.9,26.63Z" transform="translate(-2.35 -2.27)" style="fill:#ffda44"/><path d="M21.7,26.63a.68.68,0,1,0,.68.68A.69.69,0,0,0,21.7,26.63Z" transform="translate(-2.35 -2.27)" style="fill:#ffda44"/><path d="M16.1,26.63a.68.68,0,0,0-.68.68.7.7,0,0,0,.2.48.69.69,0,0,0,.48.2.7.7,0,0,0,.48-.2.69.69,0,0,0,0-1A.7.7,0,0,0,16.1,26.63Z" transform="translate(-2.35 -2.27)" style="fill:#ffda44"/><path d="M16.1,23.83a.68.68,0,1,0,.68.68A.69.69,0,0,0,16.1,23.83Z" transform="translate(-2.35 -2.27)" style="fill:#ffda44"/><path d="M16.1,21a.68.68,0,1,0,.68.68A.69.69,0,0,0,16.1,21Z" transform="translate(-2.35 -2.27)" style="fill:#ffda44"/><path d="M16.1,18.21a.68.68,0,1,0,.68.68A.69.69,0,0,0,16.1,18.21Z" transform="translate(-2.35 -2.27)" style="fill:#ffda44"/><path d="M16.1,15.41a.68.68,0,1,0,0,1.37.7.7,0,0,0,.48-.2.69.69,0,0,0,.2-.48.7.7,0,0,0-.2-.48A.69.69,0,0,0,16.1,15.41Z" transform="translate(-2.35 -2.27)" style="fill:#ffda44"/><path d="M24.51,15.41a.68.68,0,1,0,.68.68A.69.69,0,0,0,24.51,15.41Z" transform="translate(-2.35 -2.27)" style="fill:#ffda44"/><path d="M21.7,15.41a.68.68,0,1,0,.68.68A.69.69,0,0,0,21.7,15.41Z" transform="translate(-2.35 -2.27)" style="fill:#ffda44"/><path d="M18.9,15.41a.68.68,0,1,0,.68.68A.69.69,0,0,0,18.9,15.41Z" transform="translate(-2.35 -2.27)" style="fill:#ffda44"/><path d="M27.32,15.41a.68.68,0,1,0,.68.68.7.7,0,0,0-.2-.48A.71.71,0,0,0,27.32,15.41Z" transform="translate(-2.35 -2.27)" style="fill:#ffda44"/><path d="M27.32,18.21a.68.68,0,1,0,.68.68A.69.69,0,0,0,27.32,18.21Z" transform="translate(-2.35 -2.27)" style="fill:#ffda44"/><path d="M27.32,23.83a.68.68,0,1,0,.68.68A.69.69,0,0,0,27.32,23.83Z" transform="translate(-2.35 -2.27)" style="fill:#ffda44"/><path d="M27.32,21a.68.68,0,1,0,.68.68A.69.69,0,0,0,27.32,21Z" transform="translate(-2.35 -2.27)" style="fill:#ffda44"/></svg>