<svg id="Layer_1" data-name="Layer 1" xmlns="http://www.w3.org/2000/svg" width="23.62" height="18.09" viewBox="0 0 23.62 18.09"><title>block quote</title><g id="Quotemarks-left"><path d="M21.27,13.23A6.54,6.54,0,0,1,22.71,9a.4.4,0,0,0,0-.51L21.45,7.31c-.34-.34-.49-.5-.72-.71a.4.4,0,0,0-.53,0,15.35,15.35,0,0,0-4.94,12.34,5.78,5.78,0,0,0,5.68,5.65,5.68,5.68,0,0,0,.33-11.36Zm-.33,10.56a5,5,0,0,1-4.88-4.91h0a14.63,14.63,0,0,1,4.4-11.43l.42.42,1,1c-1.76,2.72-1.43,4.65-1.29,4.93a.41.41,0,0,0,.36.22,4.88,4.88,0,1,1,0,9.76Z" transform="translate(-3 -6.5)" style="fill:#939393"/><path d="M9.05,13.23A6.54,6.54,0,0,1,10.49,9a.4.4,0,0,0,0-.51L9.23,7.31c-.34-.35-.49-.5-.72-.71A.4.4,0,0,0,8,6.6,15.35,15.35,0,0,0,3,18.93H3a5.78,5.78,0,0,0,5.68,5.65,5.68,5.68,0,0,0,.33-11.36ZM8.72,23.79a5,5,0,0,1-4.88-4.91h0A14.63,14.63,0,0,1,8.24,7.45l.42.43,1,1c-1.76,2.72-1.43,4.65-1.29,4.93a.42.42,0,0,0,.36.22,4.88,4.88,0,1,1,0,9.76Z" transform="translate(-3 -6.5)"/></g></svg>