<svg id="Layer_1" data-name="Layer 1" xmlns="http://www.w3.org/2000/svg" width="23.37" height="11.68" viewBox="0 0 23.37 11.68"><title>soundcloud</title><path d="M9.11,20.68h1.46v-9.2a3.75,3.75,0,0,0-1.46.81ZM6.19,14.46v6.21H7.65V14.45H6.19Zm-2.92,3.1a3.13,3.13,0,0,0,1.46,2.66V14.91A3.13,3.13,0,0,0,3.27,17.57ZM12,20.68h1.46V11.89A3.65,3.65,0,0,0,12,11.37Zm11.59-6.23H22.8a4.79,4.79,0,0,0,.07-.78A4.6,4.6,0,0,0,18.34,9a4.44,4.44,0,0,0-3.39,1.6V20.68h8.67a3.12,3.12,0,0,0,0-6.23Z" transform="translate(-3.27 -9)" style="fill:#f70"/></svg>