<svg xmlns="http://www.w3.org/2000/svg" width="512" height="512">
  <path d="M511.787 401.901c-.172-.709-4.365-17.578-17.097-34.5-11.928-15.853-33.818-34.751-70.361-34.751-66.083 0-117.811 32.562-167.837 64.053-50.14 31.561-101.985 64.197-168.819 64.197-21.129 0-39.842-7.295-55.617-21.682-12.021-10.964-17.77-22.163-17.827-22.274-1.861-3.698-6.365-5.196-10.074-3.343-3.711 1.856-5.216 6.369-3.361 10.082 1.066 2.133 26.814 52.248 86.877 52.248 71.171 0 124.882-33.811 176.824-66.508 50.441-31.752 98.084-61.742 159.831-61.742 24.177 0 43.703 9.537 58.038 28.344 11.027 14.467 14.783 29.29 14.816 29.422.979 4.033 5.041 6.511 9.075 5.531 4.034-.981 6.511-5.044 5.532-9.077z" fill="#99a3af"/>
  <path d="M327.398 328.059c-.816-3.132-3.646-5.439-6.877-5.608l-44.591-2.342-57.772-108.85c-1.947-3.666-6.493-5.061-10.162-3.114-3.665 1.946-5.06 6.495-3.114 10.161l59.767 112.608c1.237 2.332 3.608 3.842 6.243 3.982l21.746 1.142-85.425 45.339 11.242-18.649c1.362-2.26 1.439-5.071.201-7.402L116.421 162.702c-1.947-3.666-6.493-5.061-10.162-3.114L54.4 187.112a7.4987 7.4987 0 0 0-3.091 3.069l-7.693 14.257-25.283-47.637L212.497 53.748l25.283 47.637-16.119-1.618c-1.479-.151-2.963.144-4.273.84l-51.86 27.525c-3.612 1.916-5.037 6.543-3.115 10.161l24.111 45.427c1.946 3.666 6.492 5.06 10.162 3.114 3.665-1.946 5.06-6.495 3.114-10.161l-20.589-38.79 43.213-22.935 27.825 2.793c5.855.589 10.149-5.799 7.388-11l-35.389-66.677c-1.946-3.666-6.494-5.061-10.162-3.114L4.65 147.049c-3.666 1.946-5.061 6.495-3.115 10.161l35.389 66.677c2.761 5.203 10.454 5.229 13.252.045l13.281-24.611 43.212-22.936 96.717 182.227-23.051 38.241c-1.638 2.718-1.363 6.27.676 8.703 2.253 2.689 6.183 3.458 9.284 1.813l133.354-70.778c3.039-1.612 4.615-5.203 3.749-8.532z" fill="#99a3af"/>
</svg>
