<svg id="Layer_1" data-name="Layer 1" xmlns="http://www.w3.org/2000/svg" width="27.22" height="12.86" viewBox="0 0 27.22 12.86"><title>flickr</title><path d="M7.43,21.92a6.43,6.43,0,1,1,6.43-6.43A6.44,6.44,0,0,1,7.43,21.92Zm0-11.77a5.34,5.34,0,1,0,5.34,5.34A5.35,5.35,0,0,0,7.43,10.15Z" transform="translate(-1 -9.07)" style="fill:#2351ba"/><path d="M21.79,21.92a6.43,6.43,0,1,1,6.43-6.43A6.44,6.44,0,0,1,21.79,21.92Zm0-11.77a5.34,5.34,0,1,0,5.34,5.34A5.35,5.35,0,0,0,21.79,10.15Z" transform="translate(-1 -9.07)" style="fill:#c13581"/><path d="M7.07,12.12A.54.54,0,0,1,7,11l.4,0a.54.54,0,0,1,0,1.08H7.07Z" transform="translate(-1 -9.07)" style="fill:#2351ba"/><path d="M3.49,16A.54.54,0,0,1,3,15.5a4.47,4.47,0,0,1,2-3.75.54.54,0,0,1,.59.91A3.38,3.38,0,0,0,4,15.5.54.54,0,0,1,3.49,16Z" transform="translate(-1 -9.07)" style="fill:#2351ba"/></svg>