<?xml version="1.0" encoding="utf-8"?>
<!-- Generator: Adobe Illustrator 18.0.0, SVG Export Plug-In . SVG Version: 6.00 Build 0)  -->
<!DOCTYPE svg PUBLIC "-//W3C//DTD SVG 1.1//EN" "http://www.w3.org/Graphics/SVG/1.1/DTD/svg11.dtd">
<svg version="1.1" id="Layer_1" xmlns="http://www.w3.org/2000/svg" xmlns:xlink="http://www.w3.org/1999/xlink" x="0px" y="0px"
	 width="30px" height="30px" viewBox="0 0 30 30" enable-background="new 0 0 30 30" xml:space="preserve">
<polygon fill="#5EBAE7" points="28.2,23.9 28.2,6.6 7,6.6 7,8.4 26.5,8.4 26.5,23.9 "/>
<polygon fill="#CBBBA0" points="26.5,25.7 26.5,8.4 5.1,8.5 5.1,10.3 24.5,10.3 24.5,25.7 "/>
<rect x="1.4" y="10.1" fill="#5EBAE7" width="23.3" height="16.4"/>
<rect x="13.1" y="10.1" fill="#36A9E1" width="11.7" height="16.4"/>
<g>
	<polygon fill="#FFFFFF" points="23,25.2 2.7,25.2 10.9,20.9 15.2,20.9 	"/>
	<rect x="2.7" y="11.8" fill="#FFFFFF" width="20.3" height="9.1"/>
</g>
<polygon fill="#CBBBA0" points="19.7,20.9 14.4,15.7 10.9,19.2 9.6,17.9 6.6,20.9 "/>
<path fill="#5EBAE7" d="M15.7,17l0.4-0.4c1.2-1.2,3.1-1.2,4.3,0c1.2,1.2,1.2,3.1,0,4.3l-0.9,0L15.7,17"/>
<g>
	<polygon fill="#D5C9B3" points="23.3,25.2 14.4,20.9 23.3,20.9 	"/>
	<polygon fill="#D5C9B3" points="2.7,20.9 11.4,20.9 2.7,25.2 	"/>
</g>
<g>
	<path fill="#1D1D1B" d="M2.4,11.2v14.5h21.3V11.2H2.4z M12.6,22.8v1.9H4.5l6.8-3.4h1.3v0.7h0.8v-0.7h1.3l6.8,3.4h-8.1v-1.9H12.6z
		 M20,20.5h-0.3h0l-3.5-3.5c0.5-0.6,1.2-0.9,2-0.9c1.4,0,2.6,1.2,2.6,2.6C20.8,19.4,20.5,20.1,20,20.5z M18.5,20.5h-11l2.2-2.2
		l1.3,1.3l3.4-3.4L18.5,20.5z M9.3,21.4l-6.1,3.1v-3.1H9.3z M22.8,21.4v3.1l-6.1-3.1H22.8z M22.8,12v8.5h-1.7
		c0.3-0.5,0.5-1.2,0.5-1.8c0-1.9-1.5-3.4-3.4-3.4c-1,0-1.9,0.4-2.6,1.2l-1.3-1.3L11,18.5l-1.3-1.3l-3.4,3.4H3.2V12H22.8z"/>
	<path fill="#1D1D1B" d="M28.6,6.2H6.5V8H4.6v1.8H1V27h24v-0.9h1.8v-1.8h1.8V6.2z M24.2,26.2H1.8V10.6h22.3L24.2,26.2L24.2,26.2z
		 M26,25.2h-1V9.8H5.5v-1H26V25.2L26,25.2z M27.8,23.4h-1V8H7.3V7h20.5L27.8,23.4L27.8,23.4z"/>
	<rect x="4.1" y="13" fill="#1D1D1B" width="4.5" height="0.8"/>
	<rect x="4.1" y="14.8" fill="#1D1D1B" width="0.9" height="0.8"/>
	<rect x="6" y="14.8" fill="#1D1D1B" width="0.9" height="0.8"/>
	<rect x="7.8" y="14.8" fill="#1D1D1B" width="0.9" height="0.8"/>
</g>
</svg>
