<?xml version="1.0" encoding="utf-8"?>
<!-- Generator: Adobe Illustrator 18.0.0, SVG Export Plug-In . SVG Version: 6.00 Build 0)  -->
<!DOCTYPE svg PUBLIC "-//W3C//DTD SVG 1.1//EN" "http://www.w3.org/Graphics/SVG/1.1/DTD/svg11.dtd">
<svg version="1.1" id="Layer_1" xmlns="http://www.w3.org/2000/svg" xmlns:xlink="http://www.w3.org/1999/xlink" x="0px" y="0px"
	 width="30px" height="30px" viewBox="0 0 30 30" enable-background="new 0 0 30 30" xml:space="preserve">
<g>
	<path fill="none" stroke="#3F51B5" stroke-linecap="round" stroke-linejoin="round" stroke-miterlimit="10" d="M25.3,16.3
		c1-0.6,1.7-1.7,1.7-3v-0.4c0-1.9-1.6-3.5-3.5-3.5h-18C3.6,9.4,2,10.9,2,12.9v0.4c0,1.9,1.6,3.5,3.5,3.5h13.1"/>
	<path fill="none" stroke="#3F51B5" stroke-linecap="round" stroke-linejoin="round" stroke-miterlimit="10" d="M25.5,16.8
		c0-0.5-0.4-0.8-0.8-0.8c-0.3,0-0.6,0.2-0.8,0.5l0-0.1c0-0.5-0.4-0.9-0.9-0.9s-0.9,0.4-0.9,0.9v-0.4c0-0.5-0.4-0.9-0.9-0.9
		c-0.5,0-0.9,0.4-0.9,0.9V14c0-0.5-0.4-0.9-0.9-0.9c-0.5,0-0.9,0.4-0.9,0.9l0,4.5c-0.2-0.2-0.4-0.4-0.7-0.4c-0.5,0-0.9,0.4-0.9,0.9
		c0,0.3,0.1,0.5,0.3,0.7l3,2.9c1.2,1.2,3.1,0.7,3.7,0.1c0.5-0.5,1.5-1.5,1.5-2.8C25.5,18.7,25.5,16.8,25.5,16.8z"/>
</g>
</svg>
