<?xml version="1.0" encoding="utf-8"?>
<!-- Generator: Adobe Illustrator 18.0.0, SVG Export Plug-In . SVG Version: 6.00 Build 0)  -->
<!DOCTYPE svg PUBLIC "-//W3C//DTD SVG 1.1//EN" "http://www.w3.org/Graphics/SVG/1.1/DTD/svg11.dtd">
<svg version="1.1" id="Layer_1" xmlns="http://www.w3.org/2000/svg" xmlns:xlink="http://www.w3.org/1999/xlink" x="0px" y="0px"
	 width="30px" height="30px" viewBox="0 0 30 30" enable-background="new 0 0 30 30" xml:space="preserve">
<g>
	<g>
		
			<rect x="6.8" y="4.1" fill="none" stroke="#FF00B7" stroke-width="1.3" stroke-linecap="round" stroke-linejoin="round" stroke-miterlimit="10" width="16.3" height="22.9"/>
		<g opacity="0.7">
			
				<polyline fill="none" stroke="#0013FF" stroke-width="1.3" stroke-linecap="round" stroke-linejoin="round" stroke-miterlimit="10" points="
				4,25.6 1.6,25.6 1.6,5.6 4,5.6 			"/>
			
				<polyline fill="none" stroke="#0013FF" stroke-width="1.3" stroke-linecap="round" stroke-linejoin="round" stroke-miterlimit="10" points="
				25.9,25.6 28.2,25.6 28.2,5.6 25.9,5.6 			"/>
		</g>
	</g>
	<g>
		<g>
			
				<path fill="none" stroke="#FF00B7" stroke-width="1.3" stroke-linecap="round" stroke-linejoin="round" stroke-miterlimit="10" d="
				M12.2,14c0,1.1,1.2,2,2.7,2s2.7-0.9,2.7-2s-1.2-2-2.7-2s-2.7-0.9-2.7-2s1.2-2,2.7-2s2.7,0.9,2.7,2"/>
			
				<line fill="none" stroke="#FF00B7" stroke-width="1.3" stroke-linecap="round" stroke-linejoin="round" stroke-miterlimit="10" x1="14.9" y1="6.9" x2="14.9" y2="17.2"/>
		</g>
		
			<line fill="none" stroke="#FF00B7" stroke-width="1.3" stroke-linecap="round" stroke-linejoin="round" stroke-miterlimit="10" x1="10" y1="21.6" x2="19.8" y2="21.6"/>
		
			<line fill="none" stroke="#FF00B7" stroke-width="1.3" stroke-linecap="round" stroke-linejoin="round" stroke-miterlimit="10" x1="10" y1="23.9" x2="19.8" y2="23.9"/>
	</g>
</g>
</svg>
