<?xml version="1.0" encoding="utf-8"?>
<!-- Generator: Adobe Illustrator 18.0.0, SVG Export Plug-In . SVG Version: 6.00 Build 0)  -->
<!DOCTYPE svg PUBLIC "-//W3C//DTD SVG 1.1//EN" "http://www.w3.org/Graphics/SVG/1.1/DTD/svg11.dtd">
<svg version="1.1" id="Layer_1" xmlns="http://www.w3.org/2000/svg" xmlns:xlink="http://www.w3.org/1999/xlink" x="0px" y="0px"
	 width="30px" height="30px" viewBox="0 0 30 30" enable-background="new 0 0 30 30" xml:space="preserve">
<g>
	<path fill="none" stroke="#FF9800" stroke-width="1.3" stroke-linecap="round" stroke-linejoin="round" stroke-miterlimit="10" d="
		M14.1,4.7c0,3.1,0,6.2,0,9.2c-4,0-8.1,0-12.1,0c0-3.1,0-6.2,0-9.2C6,4.7,10.1,4.7,14.1,4.7z"/>
	<path fill="none" stroke="#FF9800" stroke-width="1.3" stroke-linecap="round" stroke-linejoin="round" stroke-miterlimit="10" d="
		M11.7,12c-0.3-0.3-0.5-0.6-0.8-0.8c-0.4,0.4-0.6,0.6-1,1c-1-1-1.9-1.9-2.9-2.9c-0.9,0.9-1.9,1.9-2.8,2.8"/>
	<path fill="none" stroke="#FF9800" stroke-width="1.3" stroke-linecap="round" stroke-linejoin="round" stroke-miterlimit="10" d="
		M9.7,7.9c0-0.6,0.6-1.2,1.2-1.2c0.6,0,1.2,0.6,1.2,1.2s-0.6,1.2-1.2,1.2C10.3,9.1,9.7,8.5,9.7,7.9z"/>
</g>
<g>
	<path fill="none" stroke="#4CAF50" stroke-width="1.3" stroke-linecap="round" stroke-linejoin="round" stroke-miterlimit="10" d="
		M28.4,4.7c0,3.1,0,6.2,0,9.2c-4,0-8.1,0-12.1,0c0-3.1,0-6.2,0-9.2C20.3,4.7,24.4,4.7,28.4,4.7z"/>
	<path fill="none" stroke="#4CAF50" stroke-width="1.3" stroke-linecap="round" stroke-linejoin="round" stroke-miterlimit="10" d="
		M26,12c-0.3-0.3-0.5-0.6-0.8-0.8c-0.4,0.4-0.6,0.6-1,1c-1-1-1.9-1.9-2.9-2.9c-0.9,0.9-1.9,1.9-2.8,2.8"/>
	<path fill="none" stroke="#4CAF50" stroke-width="1.3" stroke-linecap="round" stroke-linejoin="round" stroke-miterlimit="10" d="
		M24,7.9c0-0.6,0.6-1.2,1.2-1.2c0.6,0,1.2,0.6,1.2,1.2s-0.6,1.2-1.2,1.2C24.6,9.1,24,8.5,24,7.9z"/>
</g>
<g>
	<path fill="none" stroke="#262626" stroke-width="1.3" stroke-linecap="round" stroke-linejoin="round" stroke-miterlimit="10" d="
		M14.1,16.2c0,3.1,0,6.2,0,9.2c-4,0-8.1,0-12.1,0c0-3.1,0-6.2,0-9.2C6,16.2,10.1,16.2,14.1,16.2z"/>
	<path fill="none" stroke="#262626" stroke-width="1.3" stroke-linecap="round" stroke-linejoin="round" stroke-miterlimit="10" d="
		M11.7,23.4c-0.3-0.3-0.5-0.6-0.8-0.8c-0.4,0.4-0.6,0.6-1,1c-1-1-1.9-1.9-2.9-2.9c-0.9,0.9-1.9,1.9-2.8,2.8"/>
	<path fill="none" stroke="#262626" stroke-width="1.3" stroke-linecap="round" stroke-linejoin="round" stroke-miterlimit="10" d="
		M9.7,19.3c0-0.6,0.6-1.2,1.2-1.2c0.6,0,1.2,0.6,1.2,1.2s-0.6,1.2-1.2,1.2C10.3,20.5,9.7,20,9.7,19.3z"/>
</g>
<g>
	<path fill="none" stroke="#FF5722" stroke-width="1.3" stroke-linecap="round" stroke-linejoin="round" stroke-miterlimit="10" d="
		M28.4,16.2c0,3.1,0,6.2,0,9.2c-4,0-8.1,0-12.1,0c0-3.1,0-6.2,0-9.2C20.3,16.2,24.4,16.2,28.4,16.2z"/>
	<path fill="none" stroke="#FF5722" stroke-width="1.3" stroke-linecap="round" stroke-linejoin="round" stroke-miterlimit="10" d="
		M26,23.4c-0.3-0.3-0.5-0.6-0.8-0.8c-0.4,0.4-0.6,0.6-1,1c-1-1-1.9-1.9-2.9-2.9c-0.9,0.9-1.9,1.9-2.8,2.8"/>
	<path fill="none" stroke="#FF5722" stroke-width="1.3" stroke-linecap="round" stroke-linejoin="round" stroke-miterlimit="10" d="
		M24,19.3c0-0.6,0.6-1.2,1.2-1.2c0.6,0,1.2,0.6,1.2,1.2s-0.6,1.2-1.2,1.2C24.6,20.5,24,20,24,19.3z"/>
</g>
</svg>
