<svg id="Layer_1" data-name="Layer 1" xmlns="http://www.w3.org/2000/svg" width="23.2" height="24.82" viewBox="0 0 23.2 24.82"><title>countdown</title><path d="M6.79,9.33a.42.42,0,0,1-.3-.12L5,7.72a.42.42,0,1,1,.59-.59L7.09,8.61a.42.42,0,0,1-.3.72Z" transform="translate(-2.92 -3.18)" style="fill:#556080"/><path d="M22.26,9.33a.42.42,0,0,1-.3-.72l1.49-1.49a.42.42,0,0,1,.59.59L22.56,9.2A.42.42,0,0,1,22.26,9.33Z" transform="translate(-2.92 -3.18)" style="fill:#556080"/><circle cx="11.6" cy="13.46" r="10.94" style="fill:#fff"/><path d="M15.37,5.32V4.44h1.05A.63.63,0,0,0,17,3.81h0a.63.63,0,0,0-.63-.63H12.63a.63.63,0,0,0-.63.63h0a.63.63,0,0,0,.63.63h1.05v.88a11.36,11.36,0,1,0,1.68,0Zm-.84,21.84A10.52,10.52,0,1,1,25,16.64,10.53,10.53,0,0,1,14.52,27.16Z" transform="translate(-2.92 -3.18)" style="fill:#424a60"/><rect x="3.45" y="5.56" width="2.52" height="2.52" transform="translate(-6.37 2.15) rotate(-45.01)" style="fill:#dc691d"/><rect x="23.08" y="5.56" width="2.52" height="2.52" transform="translate(-0.62 16.03) rotate(-45)" style="fill:#14a085"/><path d="M14.52,5.28a.42.42,0,0,0-.42.42V7a.42.42,0,0,0,.84,0V5.7A.42.42,0,0,0,14.52,5.28Z" transform="translate(-2.92 -3.18)" style="fill:#424a60"/><path d="M14.52,25.9a.42.42,0,0,0-.42.42v1.26a.42.42,0,0,0,.84,0V26.32A.42.42,0,0,0,14.52,25.9Z" transform="translate(-2.92 -3.18)" style="fill:#424a60"/><path d="M25.46,16.22H24.2a.42.42,0,0,0,0,.84h1.26a.42.42,0,1,0,0-.84Z" transform="translate(-2.92 -3.18)" style="fill:#424a60"/><path d="M4.85,17.06a.42.42,0,0,0,0-.84H3.59a.42.42,0,0,0,0,.84Z" transform="translate(-2.92 -3.18)" style="fill:#424a60"/><path d="M21.37,10.22a.42.42,0,0,0,.3-.12l.89-.89A.42.42,0,0,0,22,8.61l-.89.89a.42.42,0,0,0,.3.72Z" transform="translate(-2.92 -3.18)" style="fill:#424a60"/><path d="M7.38,23.19l-.89.89a.42.42,0,1,0,.59.59L8,23.78a.42.42,0,0,0-.59-.59Z" transform="translate(-2.92 -3.18)" style="fill:#424a60"/><path d="M21.66,23.19a.42.42,0,0,0-.59.59l.89.89a.42.42,0,0,0,.59-.59Z" transform="translate(-2.92 -3.18)" style="fill:#424a60"/><path d="M7.09,8.61a.42.42,0,0,0-.59.59l.89.89A.42.42,0,0,0,8,9.5Z" transform="translate(-2.92 -3.18)" style="fill:#424a60"/><path d="M12.1,6a.42.42,0,0,0-.81.22l.33,1.22a.42.42,0,0,0,.41.31h.11a.42.42,0,0,0,.3-.52Z" transform="translate(-2.92 -3.18)" style="fill:#424a60"/><path d="M17.43,25.88a.42.42,0,0,0-.81.22l.33,1.22a.42.42,0,0,0,.41.31h.11a.42.42,0,0,0,.3-.52Z" transform="translate(-2.92 -3.18)" style="fill:#424a60"/><path d="M23.46,14.25a.42.42,0,0,0,.41.31H24l1.22-.33A.42.42,0,0,0,25,13.4l-1.22.33A.42.42,0,0,0,23.46,14.25Z" transform="translate(-2.92 -3.18)" style="fill:#424a60"/><path d="M5.58,19a.42.42,0,0,0-.52-.3l-1.22.33a.42.42,0,0,0,.11.83h.11l1.22-.33A.42.42,0,0,0,5.58,19Z" transform="translate(-2.92 -3.18)" style="fill:#424a60"/><path d="M20.2,6.8a.42.42,0,0,0-.57.15L19,8.05a.42.42,0,1,0,.73.42l.63-1.09A.42.42,0,0,0,20.2,6.8Z" transform="translate(-2.92 -3.18)" style="fill:#424a60"/><path d="M9.9,24.66a.42.42,0,0,0-.57.15L8.69,25.9a.42.42,0,1,0,.73.42l.63-1.09A.42.42,0,0,0,9.9,24.66Z" transform="translate(-2.92 -3.18)" style="fill:#424a60"/><path d="M24.21,21.75l-1.09-.63a.42.42,0,0,0-.42.73l1.09.63a.42.42,0,1,0,.42-.73Z" transform="translate(-2.92 -3.18)" style="fill:#424a60"/><path d="M4.84,11.54l1.09.63a.42.42,0,1,0,.42-.73l-1.09-.63a.42.42,0,1,0-.42.73Z" transform="translate(-2.92 -3.18)" style="fill:#424a60"/><path d="M9.42,7a.42.42,0,1,0-.73.42l.63,1.09a.42.42,0,1,0,.73-.42Z" transform="translate(-2.92 -3.18)" style="fill:#424a60"/><path d="M19.73,24.81a.42.42,0,0,0-.73.42l.63,1.09a.42.42,0,0,0,.73-.42Z" transform="translate(-2.92 -3.18)" style="fill:#424a60"/><path d="M22.54,12a.42.42,0,0,0,.57.15l1.09-.63a.42.42,0,1,0-.42-.73l-1.09.63A.42.42,0,0,0,22.54,12Z" transform="translate(-2.92 -3.18)" style="fill:#424a60"/><path d="M6.51,21.27a.42.42,0,0,0-.57-.15l-1.09.63a.42.42,0,1,0,.42.73l1.09-.63A.42.42,0,0,0,6.51,21.27Z" transform="translate(-2.92 -3.18)" style="fill:#424a60"/><path d="M17.46,5.67a.42.42,0,0,0-.52.3l-.33,1.22a.42.42,0,0,0,.3.52H17a.42.42,0,0,0,.41-.31l.33-1.22A.42.42,0,0,0,17.46,5.67Z" transform="translate(-2.92 -3.18)" style="fill:#424a60"/><path d="M12.13,25.58a.42.42,0,0,0-.52.3l-.33,1.22a.42.42,0,0,0,.3.52h.11a.42.42,0,0,0,.41-.31l.33-1.22A.42.42,0,0,0,12.13,25.58Z" transform="translate(-2.92 -3.18)" style="fill:#424a60"/><path d="M25.2,19.07,24,18.74a.42.42,0,0,0-.22.81l1.22.33h.11a.42.42,0,0,0,.11-.83Z" transform="translate(-2.92 -3.18)" style="fill:#424a60"/><path d="M3.85,14.22l1.22.33h.11a.42.42,0,0,0,.11-.83L4.07,13.4a.42.42,0,0,0-.22.81Z" transform="translate(-2.92 -3.18)" style="fill:#424a60"/><path d="M9.9,12h0L15.34,16a1.08,1.08,0,0,1,.13,1.63h0a1.08,1.08,0,0,1-1.63-.13Z" transform="translate(-2.92 -3.18)" style="fill:#48a0dc"/></svg>